<?xml version="1.0" standalone="no"?>
<!DOCTYPE svg PUBLIC "-//W3C//DTD SVG 1.1//EN" "http://www.w3.org/Graphics/SVG/1.1/DTD/svg11.dtd" >
<svg xmlns="http://www.w3.org/2000/svg">
<metadata>Generated by IcoMoon</metadata>
<defs>
<font id="icomoon" horiz-adv-x="1024">
<font-face units-per-em="1024" ascent="960" descent="-64" />
<missing-glyph horiz-adv-x="1024" />
<glyph unicode="&#x20;" horiz-adv-x="512" d="" />
<glyph unicode="&#xe900;" horiz-adv-x="1313" d="M1203.132 809.745h-308.087l-67.584 136.533c-4.057 8.151-12.33 13.654-21.888 13.654-0.033 0-0.066 0-0.099 0h-223.090c-0.015 0-0.033 0-0.051 0-9.57 0-17.855-5.5-21.867-13.512l-0.064-0.141-67.584-136.533h-382.293c-60.821-0.078-110.105-49.362-110.182-110.175v-653.387c0.078-60.821 49.362-110.105 110.175-110.182h1092.957c60.821 0.078 110.105 49.362 110.182 110.175v653.387c-0.078 60.869-49.439 110.183-110.319 110.183-0.072 0-0.144 0-0.216 0h0.011zM597.538 910.916h192.649l50.039-101.171h-292.727zM110.182-14.916c-33.666 0.192-60.906 27.432-61.099 61.080v491.538h476.16l-19.115-31.266c-34.148-55.042-54.388-121.816-54.388-193.317 0-117.861 54.995-222.877 140.725-290.786l0.772-0.59 46.49-36.659zM500.941 312.764c0.66 176.363 143.782 319.078 320.237 319.078 176.863 0 320.239-143.376 320.239-320.239s-143.375-320.238-320.237-320.239v0c-176.939 0.349-320.24 143.866-320.24 320.853 0 0.312 0 0.624 0.001 0.936v-0.048zM1264.23 45.841c-0.192-33.666-27.432-60.906-61.080-61.099h-200.585l46.421 36.659c86.528 68.499 141.543 173.531 141.543 291.413 0 71.486-20.232 138.247-55.281 194.869l0.915-1.588-19.115 31.266h147.183zM1264.23 586.308h-194.15l-5.803 5.12c-64.466 57.004-149.717 91.808-243.098 91.808s-178.632-34.804-243.49-92.148l0.392 0.34-5.803-5.12h-523.196v112.913c0.192 33.666 27.432 60.906 61.080 61.099h1092.967c33.666-0.192 60.906-27.432 61.099-61.080v-0.018z" />
<glyph unicode="&#xe901;" horiz-adv-x="1313" d="M821.18 523.298c-0.182 0.001-0.398 0.001-0.614 0.001-116.086 0-210.193-94.107-210.193-210.193s94.107-210.193 210.193-210.193c116.086 0 210.192 94.106 210.193 210.192v0c0 0.020 0 0.045 0 0.069 0 115.857-93.765 209.813-209.549 210.124h-0.030zM821.18 156.57c-0.182-0.001-0.398-0.001-0.614-0.001-86.452 0-156.535 70.083-156.535 156.535s70.083 156.535 156.535 156.535c86.452 0 156.535-70.083 156.535-156.535 0-0.024 0-0.047 0-0.071v0.004c0-0.020 0-0.045 0-0.069 0-86.209-69.75-156.126-155.895-156.398h-0.026z" />
<glyph unicode="&#xe902;" horiz-adv-x="1313" d="M821.316 473.122c-0.203 0.001-0.443 0.001-0.683 0.001-88.526 0-160.29-71.764-160.29-160.29s71.764-160.29 160.29-160.29c88.525 0 160.289 71.764 160.29 160.289v0c0 0.041 0 0.089 0 0.137 0 88.258-71.392 159.842-159.578 160.153h-0.030z" />
<glyph unicode="&#xe903;" horiz-adv-x="1313" d="M790.187 910.848h-192.649l-50.039-101.103h292.727z" />
<glyph unicode="&#xe904;" horiz-adv-x="968" d="M938.088 419.391c-0.487 0.029-1.056 0.045-1.629 0.045-16.361 0-29.625-13.263-29.625-29.625 0-13.629 9.204-25.109 21.735-28.563l0.208-0.049c-8.049-9.657-16.667-18.275-26.002-26.063l-0.322-0.261c-7.567-6.245-15.978-12.312-24.772-17.824l-1.001-0.585c-5.848 17.696-22.238 30.24-41.558 30.24-24.121 0-43.675-19.554-43.675-43.675 0-7.759 2.023-15.046 5.571-21.361l-0.113 0.22c-11.935-3.301-24.038-5.967-36.227-8.041l-7.914-1.397c-2.007 6.573-8.018 11.271-15.126 11.271-8.455 0-15.358-6.647-15.767-15.001l-0.001-0.037c-10.242-0.55-20.483-1.312-30.725-1.481-2.985 28.258-26.687 50.085-55.488 50.085-29.458 0-53.582-22.835-55.637-51.769l-0.010-0.178c-20.178-3.93-38.14-10.593-54.565-19.694l0.944 0.48c-2.836-1.608-5.586-3.259-8.464-4.909-4.548 2.519-9.973 4.002-15.744 4.002-18.172 0-32.909-14.702-32.968-32.859v-0.006c0-0.016 0-0.035 0-0.054 0-4.276 0.824-8.359 2.321-12.101l-0.078 0.22c-2.201-2.624-4.232-5.29-6.39-7.956-6.449-8.434-12.684-17.952-18.219-27.913l-0.614-1.204c-1.524 8.464-2.836 17.352-3.767 26.070-1.281 12.109-2.012 26.159-2.012 40.38 0 8.127 0.239 16.198 0.709 24.207l-0.052-1.105c1.614 23.341 4.877 44.901 9.729 65.853l-0.545-2.795c2.751 10.326 4.994 20.78 8.464 30.852 1.693 5.079 3.132 10.199 4.994 15.236l5.756 15.024c1.777 5.079 3.978 9.945 6.221 14.812l6.602 14.728c4.486 10.157 9.565 20.145 13.627 30.513 7.039 15.985 14.663 36.679 21.219 57.842l1.211 4.539c4.055 10.176 8.047 18.531 12.501 26.595l-0.609-1.202c8.75 15.71 18.31 29.277 29.118 41.733l-0.255-0.301c5.036 5.798 10.411 11.342 15.997 16.674 8.982-22.004 30.215-37.228 55.005-37.228 32.723 0 59.249 26.527 59.249 59.249 0 13.887-4.777 26.658-12.778 36.759l0.094-0.123c12.9 4.273 28.691 8.17 44.871 10.93l2.021 0.285c2.46-8.957 10.53-15.429 20.111-15.429 11.285 0 20.473 8.977 20.812 20.18l0.001 0.031c11.977 0.846 24.038 1.1 36.058 0.973-0.136-0.828-0.242-1.833-0.294-2.853l-0.003-0.067c-0.009-0.274-0.014-0.597-0.014-0.921 0-16.899 13.699-30.598 30.598-30.598s30.598 13.699 30.598 30.598c0 16.899-13.699 30.598-30.598 30.598-15.078 0-27.609-10.907-30.134-25.261l-0.027-0.184q-18.113 0.762-36.311 0.254c-1.175 10.537-10.032 18.655-20.785 18.655-11.38 0-20.636-9.092-20.901-20.408v-0.025c0-0.592 0-1.1 0-1.651-19.19-2.543-36.19-6.187-52.679-11.026l2.444 0.615c-10.824 11.423-26.102 18.531-43.041 18.531-32.676 0-59.174-26.451-59.249-59.11v-0.007c0-0.014 0-0.031 0-0.047 0-4.483 0.509-8.848 1.472-13.039l-0.075 0.39c-7.45-6.332-14.203-12.79-20.561-19.619l-0.134-0.145c-6.834-7.414-13.374-15.431-19.415-23.83l-0.519-0.758c5.827 24.72 10.87 55.188 14.039 86.212l0.266 3.213c13.248 8.519 24.348 19.134 33.144 31.501l0.247 0.366c2.277-0.953 4.923-1.512 7.698-1.524h0.004c11.555 0.020 20.914 9.391 20.914 20.949 0 8.783-5.406 16.304-13.071 19.417l-0.14 0.050c0.212 1.524 0.466 3.005 0.592 4.528l0.296 8.126c0 2.666-0.423 5.375-0.635 8.041l-1.524 15.786c-0.026 0.937-0.041 2.039-0.041 3.145 0 3.362 0.138 6.691 0.408 9.983l-0.029-0.432c1.068-0.373 2.301-0.603 3.582-0.635h0.015c6.358 0 11.511 5.154 11.511 11.511s-5.154 11.511-11.511 11.511v0c2.47 10.149 5.458 18.88 9.128 27.244l-0.41-1.047c3.622 8.557 7.079 15.509 10.887 22.237l-0.561-1.077c3.956-2.159 8.66-3.44 13.66-3.47h0.009c0.109-0.001 0.237-0.002 0.365-0.002 16.595 0 30.048 13.453 30.048 30.048s-13.453 30.048-30.048 30.048c-16.595 0-30.048-13.453-30.048-30.048 0-11.155 6.079-20.891 15.105-26.075l0.146-0.077c-3.413-5.697-7.032-12.641-10.277-19.79l-0.557-1.371c-3.551-7.545-6.818-16.511-9.301-25.799l-0.264-1.16c-5.418-0.983-9.473-5.665-9.473-11.294 0-4.177 2.233-7.832 5.57-9.838l0.052-0.029c-0.458-4.127-0.72-8.912-0.72-13.759 0-0.088 0-0.176 0-0.263v0.014l1.227-15.955c0-2.624 0.508-5.205 0.423-7.787l-0.423-7.829c0-1.27-0.381-2.539-0.592-3.767-1.27 0.264-2.731 0.417-4.227 0.423h-0.005c-11.414-0.202-20.589-9.503-20.589-20.946 0-7.060 3.492-13.304 8.844-17.099l0.065-0.044c-8.002-10.644-17.512-19.629-28.317-26.823l-0.419-0.262c1.566 16.928 2.582 33.857 3.089 50.785q0.592 23.7 0 47.442c12.062 3.932 20.626 15.078 20.626 28.225 0 14.436-10.326 26.461-23.995 29.090l-0.186 0.030c-0.889 9.099-1.862 18.156-3.089 27.17-0.889 6.644-1.904 13.246-2.962 19.891 4.489 2.45 7.484 7.137 7.484 12.523 0 7.194-5.343 13.141-12.277 14.088l-0.074 0.008c-1.27 6.179-2.582 12.315-4.232 18.41-2.201 9.268-4.782 18.494-7.702 27.551 6.523 3.58 10.871 10.402 10.871 18.24 0 11.453-9.284 20.737-20.737 20.737s-20.737-9.284-20.737-20.737c0-11.453 9.284-20.737 20.737-20.737 0.062 0 0.123 0 0.185 0.001h-0.009c3.072 0.011 5.981 0.696 8.59 1.915l-0.126-0.053c2.539-9.057 4.782-18.198 6.644-27.424 1.185-5.925 2.285-11.85 3.301-17.817-7.507-0.483-13.412-6.69-13.412-14.277 0-7.9 6.404-14.305 14.305-14.305 1.185 0 2.337 0.144 3.438 0.416l-0.098-0.020c0.804-6.306 1.481-12.696 2.116-18.96 0.846-8.718 1.481-17.394 2.031-26.112-16.289-0.096-29.456-13.323-29.456-29.625 0-16.362 13.264-29.625 29.625-29.625 0.060 0 0.119 0 0.178 0.001h1.176q-0.212-22.811-1.608-45.58c-5.213-92.261-27.225-178.129-63.015-256.376l1.819 4.439c-2.031-4.698-4.232-9.311-6.602-13.881 0.254 4.232 0.466 8.464 0.677 12.696 0.179 4.936 0.281 10.734 0.281 16.556 0 18.020-0.978 35.811-2.885 53.324l0.191-2.167c-1.481 14.305-3.64 28.524-6.433 42.66 16.361 0 29.625 13.263 29.625 29.625s-13.263 29.625-29.625 29.625v0c-5.254-0.039-10.166-1.464-14.401-3.926l0.139 0.075q-5.459 16.632-12.146 32.714c-3.386 8.464-7.152 16.378-11.088 24.419 19.426 9.993 32.484 29.901 32.484 52.859 0 32.723-26.527 59.249-59.249 59.249-14.692 0-28.136-5.348-38.49-14.203l0.081 0.068c-17.88 20.199-36.744 38.526-56.898 55.36l-0.828 0.673c2.658 4.331 4.232 9.576 4.232 15.189 0 0.046 0 0.092 0 0.138v-0.007c-0.062 16.315-13.301 29.516-29.625 29.516-16.361 0-29.625-13.263-29.625-29.625s13.263-29.625 29.625-29.625c10.198 0 19.193 5.153 24.522 12.997l0.066 0.103c20.015-17.742 38.166-36.496 54.806-56.548l0.677-0.839c-11.212-10.796-18.176-25.936-18.176-42.702 0-32.685 26.466-59.189 59.137-59.249h0.006c0.002 0 0.004 0 0.007 0 7.245 0 14.181 1.319 20.583 3.73l-0.402-0.133c3.64-8.041 7.068-16.209 10.199-24.504 4.528-11.85 8.464-23.911 11.892-36.1-4.468-5.158-7.191-11.935-7.191-19.348 0-12.122 7.281-22.544 17.708-27.131l0.19-0.075q3.978-22.938 5.671-46.13c0.807-10.324 1.267-22.355 1.267-34.494 0-11.078-0.383-22.067-1.137-32.954l0.082 1.469c-1.363-21.731-4.24-41.887-8.57-61.496l0.487 2.628-6.602-15.532c-2.116-5.205-3.851-10.58-5.798-15.87-4.232-10.538-6.898-21.414-10.157-32.206-5.238-18.912-9.516-41.577-11.981-64.784l-0.165-1.914c-1.19-12.045-1.868-26.035-1.868-40.184 0-9.79 0.325-19.505 0.964-29.133l-0.070 1.307c1.248-16.603 3.2-31.539 5.903-46.212l-0.401 2.621c-3.089 2.328-6.179 4.698-9.184 7.068q-8.464 6.644-16.336 13.754c1.704 3.315 2.704 7.232 2.709 11.383v0.001c0 14.328-11.615 25.943-25.943 25.943v0c-4.29-0.017-8.324-1.096-11.859-2.987l0.136 0.067q-12.358 13.5-23.657 27.89c-1.263 13.495-9.733 24.746-21.479 29.956l-0.232 0.092c-25.61 38.3-46.084 82.727-59.020 130.26l-0.737 3.179c-6.753 24.189-11.781 52.622-14.077 81.824l-0.101 1.591c25.719 9.516 43.72 33.83 43.72 62.348 0 29.086-18.725 53.798-44.777 62.74l-0.466 0.139c-2.374 15.202-6.809 28.882-13.067 41.497l0.371-0.827c-9.266 17.735-21.964 32.49-37.322 43.856l-0.344 0.243c0.103 0.633 0.179 1.392 0.21 2.162l0.001 0.039c0.011 0.256 0.017 0.557 0.017 0.859 0 11.944-9.682 21.626-21.626 21.626s-21.626-9.682-21.626-21.626c0-11.944 9.682-21.626 21.626-21.626 10.563 0 19.357 7.573 21.249 17.586l0.021 0.135c14.941-11.798 26.962-26.609 35.265-43.57l0.327-0.74c5.158-11.165 9.001-24.119 10.879-37.702l0.082-0.726c-5.131 1.424-11.023 2.243-17.106 2.243-36.649 0-66.359-29.71-66.359-66.359 0-36.578 29.594-66.244 66.145-66.359h0.011c5.523 0.015 10.874 0.725 15.978 2.045l-0.447-0.098c3.631-69.785 21.994-134.507 52.014-192.193l-1.229 2.595c-19.582 1.61-37.687 5.317-54.932 10.93l1.692-0.476c5.749 9.635 9.148 21.249 9.148 33.657 0 36.719-29.767 66.486-66.486 66.486-13.155 0-25.418-3.821-35.739-10.413l0.268 0.16c-2.751 3.216-5.544 6.306-8.464 9.311-9.97 10.421-22.615 18.203-36.833 22.247l-0.579 0.141c-4.354 1.081-9.353 1.702-14.497 1.702-6.406 0-12.587-0.962-18.407-2.75l0.443 0.117c-5.805 7.681-14.923 12.594-25.189 12.594-17.39 0-31.487-14.097-31.487-31.487s14.097-31.487 31.487-31.487c17.39 0 31.487 14.097 31.487 31.487 0 6.398-1.908 12.35-5.186 17.318l0.073-0.118c4.38 1.14 9.408 1.795 14.589 1.795 5.651 0 11.12-0.779 16.306-2.235l-0.424 0.102c13.931-4.495 25.733-12.323 34.89-22.566l0.067-0.076c2.666-2.836 5.248-5.84 7.66-8.93-16.461-12.253-27.009-31.654-27.009-53.519 0-36.743 29.786-66.529 66.529-66.529 20.857 0 39.472 9.598 51.67 24.618l0.097 0.123c7.077-2.82 15.944-5.649 25.029-7.924l1.548-0.328c10.966-2.776 24.184-5.046 37.686-6.346l1.122-0.087c1.82-3.301 3.809-6.56 5.713-9.861-18.443-1.869-32.715-17.315-32.715-36.095 0-20.031 16.238-36.269 36.269-36.269 13.971 0 26.096 7.899 32.155 19.474l0.095 0.2c5.205-6.687 10.538-13.204 16.082-19.595-1.724-3.324-2.739-7.256-2.751-11.423v-0.004c0-0.019 0-0.041 0-0.063 0-14.281 11.577-25.858 25.858-25.858 3.832 0 7.47 0.834 10.742 2.33l-0.161-0.066c5.671-5.29 11.469-10.58 17.394-15.616 8.464-7.195 17.182-14.008 26.578-20.526 5.876-24.081 12.548-44.461 20.561-64.151l-1.094 3.040c9.695-24.198 19.636-44.413 30.873-63.782l-1.249 2.332q8.464-14.77 18.071-29.032c3.216-4.782 6.517-9.48 9.945-14.093s6.814-9.057 11.13-14.093l27.72 25.139c-2.92 3.216-6.517 7.406-9.649 11.427s-6.433 8.21-9.48 12.485c-6.179 8.464-12.061 17.225-17.606 26.197-9.998 15.74-19.894 34.157-28.488 53.286l-1.137 2.832c-8.408 18.437-16.209 40.468-22.158 63.247l-0.653 2.943c7.819 20.204 17.655 37.666 29.596 53.446l-0.395-0.544c5.527-4.359 12.592-6.992 20.272-6.992 18.161 0 32.883 14.722 32.883 32.883 0 6.892-2.12 13.288-5.744 18.573l0.073-0.112c1.397 0.889 2.751 1.777 4.232 2.624 13.515 8.099 29.168 14.575 45.78 18.597l1.154 0.236c4.563-26.604 27.456-46.595 55.018-46.595 29.48 0 53.619 22.87 55.642 51.836l0.010 0.176c10.58 0.508 21.161 1.693 31.698 2.582h0.804c2.656-5.195 7.97-8.69 14.101-8.69 7.706 0 14.122 5.521 15.508 12.823l0.016 0.098c2.962 0.592 5.925 1.185 8.887 1.862 15.622 3.154 28.506 6.546 41.108 10.569l-2.723-0.751c8.052-10.489 20.596-17.185 34.703-17.185 24.098 0 43.633 19.535 43.633 43.633 0 0.001 0 0.001 0 0.002v0c-0.013 3.564-0.444 7.021-1.247 10.333l0.062-0.303c9.949 6.565 18.578 13.177 26.719 20.333l-0.268-0.231c9.511 8.421 18.044 17.504 25.69 27.313l0.338 0.45c2.386-0.742 5.133-1.188 7.978-1.227h0.021c16.525 0 29.921 13.396 29.921 29.921s-13.396 29.921-29.921 29.921c0 0 0 0 0 0v0z" />
<glyph unicode="&#xe905;" horiz-adv-x="968" d="M579.29 378.509c0-69.676-56.483-126.159-126.159-126.159s-126.159 56.483-126.159 126.159c0 69.676 56.483 126.159 126.159 126.159s126.159-56.483 126.159-126.159z" />
<glyph unicode="&#xe906;" horiz-adv-x="968" d="M393.797 395.818v-1.481c0.071-0.597 0.111-1.288 0.111-1.989 0-3.891-1.247-7.491-3.364-10.421l0.036 0.052c-2.601-2.335-6.058-3.762-9.848-3.762-0.541 0-1.076 0.029-1.602 0.086l0.065-0.006c-0.483-0.054-1.044-0.085-1.611-0.085-4.021 0-7.68 1.544-10.418 4.072l0.010-0.010c-2.235 3.303-3.569 7.376-3.569 11.76 0 0.717 0.036 1.426 0.105 2.125l-0.007-0.088v15.278c-0.065 0.622-0.102 1.344-0.102 2.074 0 4.386 1.335 8.461 3.62 11.84l-0.048-0.075c2.745 2.658 6.492 4.296 10.621 4.296 0.492 0 0.979-0.023 1.459-0.069l-0.061 0.005c0.513 0.074 1.106 0.116 1.709 0.116 7.012 0 12.696-5.684 12.696-12.696 0-0.563-0.037-1.117-0.108-1.661l0.007 0.064v-2.412h-10.072v1.481c0.025 0.29 0.039 0.628 0.039 0.969 0 1.747-0.373 3.407-1.043 4.905l0.030-0.076c-0.607 1.142-1.789 1.906-3.149 1.906-0.038 0-0.077-0.001-0.115-0.002h0.006c-0.151 0.019-0.326 0.030-0.503 0.030-1.604 0-3-0.893-3.718-2.209l-0.011-0.022c-0.825-1.784-1.306-3.872-1.306-6.073 0-0.365 0.013-0.727 0.039-1.085l-0.003 0.048v-15.236c-0.028-0.434-0.045-0.941-0.045-1.451 0-2.691 0.45-5.277 1.279-7.687l-0.050 0.166c0.667-1.515 2.155-2.554 3.885-2.554 0.122 0 0.243 0.005 0.363 0.015l-0.016-0.001c0.035-0.001 0.076-0.002 0.118-0.002 1.482 0 2.759 0.875 3.343 2.137l0.009 0.023c0.698 1.581 1.104 3.425 1.104 5.363 0 0.391-0.017 0.779-0.049 1.162l0.003-0.050v1.481z" />
<glyph unicode="&#xe907;" horiz-adv-x="968" d="M407.721 378.255c-0.137-0.008-0.298-0.013-0.459-0.013-2.244 0-4.271 0.929-5.718 2.423l-0.002 0.002c-1.38 1.636-2.219 3.767-2.219 6.095 0 0.208 0.007 0.415 0.020 0.62l-0.001-0.028v2.074c-0.037 0.338-0.059 0.73-0.059 1.126 0 2.937 1.168 5.601 3.066 7.552l-0.002-0.003c2.52 1.61 5.592 2.567 8.889 2.567 0.536 0 1.066-0.025 1.589-0.075l-0.067 0.005h2.751v4.232c0.006 0.094 0.010 0.204 0.010 0.315 0 0.949-0.272 1.835-0.742 2.583l0.012-0.020c-0.461 0.598-1.177 0.98-1.983 0.98-0.062 0-0.123-0.002-0.184-0.007h0.008c-0.080 0.007-0.173 0.011-0.267 0.011-0.938 0-1.78-0.412-2.354-1.066l-0.003-0.004c-0.501-0.723-0.8-1.618-0.8-2.583 0-0.208 0.014-0.413 0.041-0.614l-0.003 0.023v-0.973h-9.057v0.973c-0.032 0.276-0.050 0.595-0.050 0.919 0 2.553 1.13 4.842 2.917 6.394l0.010 0.009c2.289 1.49 5.090 2.377 8.097 2.377 0.427 0 0.85-0.018 1.268-0.053l-0.055 0.004c0.326 0.027 0.706 0.043 1.090 0.043 3.055 0 5.88-0.984 8.176-2.652l-0.040 0.028c1.874-1.805 3.039-4.335 3.039-7.138 0-0.288-0.012-0.573-0.036-0.855l0.003 0.037v-24.631h-8.803v2.836l-0.381-0.466c-1.725-1.893-4.201-3.077-6.953-3.077-0.264 0-0.525 0.011-0.783 0.032l0.034-0.002zM415.55 395.183h-1.185c-0.187 0.020-0.404 0.032-0.623 0.032-1.493 0-2.859-0.54-3.914-1.436l0.009 0.007c-0.866-1.096-1.389-2.498-1.389-4.022 0-0.238 0.013-0.473 0.038-0.704l-0.003 0.029v-2.116c-0.005-0.068-0.007-0.148-0.007-0.228 0-0.885 0.323-1.694 0.858-2.316l-0.004 0.005c0.532-0.553 1.279-0.897 2.106-0.897 0.078 0 0.155 0.003 0.232 0.009l-0.010-0.001c0.039-0.002 0.086-0.003 0.132-0.003 1.229 0 2.295 0.698 2.822 1.72l0.008 0.018c0.627 1.326 0.993 2.881 0.993 4.521 0 0.226-0.007 0.45-0.021 0.673l0.002-0.031z" />
<glyph unicode="&#xe908;" horiz-adv-x="968" d="M432.563 413.424h8.464v-4.444c0.349 0.653 0.699 1.206 1.086 1.732l-0.028-0.039c1.941 2.115 4.718 3.436 7.804 3.436 0.143 0 0.285-0.003 0.427-0.008l-0.020 0.001v-7.66c-0.291 0.016-0.631 0.026-0.973 0.026s-0.683-0.009-1.020-0.028l0.047 0.002c-0.216 0.025-0.467 0.039-0.721 0.039-1.855 0-3.532-0.76-4.737-1.985l-0.001-0.001c-0.935-1.503-1.489-3.328-1.489-5.282 0-0.48 0.033-0.953 0.098-1.416l-0.006 0.053v-18.96h-9.099z" />
<glyph unicode="&#xe909;" horiz-adv-x="968" d="M466.843 378.255c-0.33-0.033-0.713-0.052-1.101-0.052-3.1 0-5.918 1.212-8.004 3.189l0.005-0.005c-1.811 2.48-2.897 5.589-2.897 8.952 0 0.484 0.022 0.962 0.066 1.435l-0.005-0.061v6.771c-0.053 0.538-0.083 1.163-0.083 1.795 0 3.821 1.103 7.384 3.008 10.388l-0.047-0.079c2.162 2.213 5.175 3.585 8.51 3.585 0.461 0 0.916-0.026 1.364-0.077l-0.055 0.005c0.476 0.062 1.027 0.098 1.586 0.098 3.236 0 6.194-1.191 8.46-3.158l-0.016 0.013c1.734-2.724 2.763-6.043 2.763-9.603 0-0.657-0.035-1.306-0.103-1.945l0.007 0.079v-5.036h-16.378v-1.058c-0.026-0.449-0.041-0.975-0.041-1.504 0-2.275 0.277-4.485 0.8-6.598l-0.039 0.188c0.396-1.147 1.467-1.956 2.726-1.956 0.083 0 0.165 0.004 0.247 0.010l-0.011-0.001c0.084-0.008 0.181-0.012 0.28-0.012 1.108 0 2.087 0.553 2.676 1.398l0.007 0.011c0.471 1.038 0.745 2.25 0.745 3.527 0 0.383-0.025 0.76-0.073 1.13l0.005-0.044v1.016h9.014v-1.016c0.025-0.269 0.039-0.582 0.039-0.899 0-2.985-1.267-5.674-3.292-7.56l-0.006-0.006c-2.519-1.847-5.681-2.956-9.102-2.956-0.371 0-0.74 0.013-1.105 0.039l0.049-0.003zM471.076 399.796v1.947c0.022 0.285 0.034 0.616 0.034 0.951 0 1.618-0.292 3.168-0.826 4.599l0.030-0.091c-0.519 0.903-1.478 1.501-2.577 1.501-0.121 0-0.24-0.007-0.357-0.021l0.014 0.001c-0.077 0.007-0.166 0.011-0.256 0.011-1.197 0-2.223-0.73-2.657-1.77l-0.007-0.019c-0.509-1.623-0.802-3.489-0.802-5.423 0-0.43 0.014-0.856 0.043-1.278l-0.003 0.057v-0.508z" />
<glyph unicode="&#xe90a;" horiz-adv-x="968" d="M497.23 378.255c-0.33-0.033-0.713-0.052-1.101-0.052-3.1 0-5.918 1.212-8.004 3.189l0.005-0.005c-1.786 2.482-2.856 5.584-2.856 8.935 0 0.49 0.023 0.974 0.068 1.452l-0.005-0.061v6.771c-0.050 0.526-0.079 1.136-0.079 1.754 0 3.834 1.101 7.41 3.004 10.431l-0.048-0.081c2.162 2.213 5.175 3.585 8.51 3.585 0.461 0 0.916-0.026 1.364-0.077l-0.055 0.005c0.472 0.061 1.018 0.096 1.573 0.096 3.24 0 6.202-1.19 8.474-3.157l-0.016 0.014c1.734-2.724 2.763-6.043 2.763-9.603 0-0.657-0.035-1.306-0.103-1.945l0.007 0.079v-5.036h-16.378v-1.058c-0.026-0.449-0.041-0.975-0.041-1.504 0-2.275 0.277-4.485 0.8-6.598l-0.039 0.188c0.396-1.147 1.467-1.956 2.726-1.956 0.083 0 0.165 0.004 0.247 0.010l-0.011-0.001c0.097-0.010 0.208-0.016 0.322-0.016 1.097 0 2.063 0.556 2.634 1.402l0.007 0.011c0.496 1.044 0.785 2.268 0.785 3.56 0 0.371-0.024 0.737-0.070 1.095l0.004-0.042v1.016h9.014v-1.016c0.025-0.269 0.039-0.582 0.039-0.899 0-2.985-1.267-5.674-3.292-7.56l-0.006-0.006c-2.521-1.851-5.685-2.962-9.109-2.962-0.399 0-0.794 0.015-1.185 0.045l0.052-0.003zM501.674 399.796v1.947c0.022 0.286 0.035 0.62 0.035 0.957 0 1.616-0.292 3.163-0.826 4.593l0.030-0.091c-0.519 0.903-1.478 1.501-2.577 1.501-0.121 0-0.24-0.007-0.357-0.021l0.014 0.001c-0.077 0.007-0.166 0.011-0.256 0.011-1.197 0-2.223-0.73-2.657-1.77l-0.007-0.019c-0.509-1.623-0.802-3.489-0.802-5.423 0-0.43 0.014-0.856 0.043-1.278l-0.003 0.057v-0.508z" />
<glyph unicode="&#xe90b;" horiz-adv-x="968" d="M517.163 413.424h8.464v-4.444c0.324 0.646 0.675 1.201 1.075 1.716l-0.017-0.023c1.934 2.115 4.706 3.437 7.786 3.437 0.149 0 0.298-0.003 0.446-0.009l-0.021 0.001v-7.66c-0.291 0.016-0.631 0.025-0.973 0.025s-0.683-0.009-1.020-0.027l0.047 0.002c-0.221 0.026-0.478 0.041-0.737 0.041-1.85 0-3.522-0.761-4.721-1.987l-0.001-0.001c-0.933-1.51-1.486-3.341-1.486-5.301 0-0.474 0.032-0.94 0.095-1.397l-0.006 0.053v-18.96h-9.057z" />
<glyph unicode="&#xe90c;" horiz-adv-x="968" d="M398.241 368.733h13.331c0.558 0.056 1.207 0.087 1.862 0.087 4.406 0 8.479-1.43 11.778-3.85l-0.056 0.039c2.664-2.978 4.293-6.932 4.293-11.265 0-0.504-0.022-1.002-0.065-1.495l0.005 0.064v-13.839c0.086-0.756 0.135-1.631 0.135-2.518 0-4.704-1.375-9.087-3.746-12.768l0.056 0.093c-3.070-2.579-7.065-4.147-11.427-4.147-0.746 0-1.481 0.046-2.203 0.135l0.086-0.009h-13.881zM408.356 326.75h2.666c0.311-0.042 0.671-0.066 1.037-0.066 2.055 0 3.932 0.763 5.363 2.021l-0.009-0.008c1.082 1.776 1.722 3.924 1.722 6.222 0 0.462-0.026 0.918-0.076 1.366l0.005-0.055v16.336c0.035 0.313 0.055 0.675 0.055 1.042 0 2.203-0.719 4.238-1.936 5.883l0.019-0.027c-1.574 1.22-3.577 1.955-5.752 1.955-0.344 0-0.684-0.018-1.019-0.054l0.042 0.004h-2.074z" />
<glyph unicode="&#xe90d;" horiz-adv-x="968" d="M437.854 319.259v49.473h24.673v-7.364h-14.558v-13.077h14.093v-7.364h-14.093v-14.305h14.855v-7.322z" />
<glyph unicode="&#xe90e;" horiz-adv-x="968" d="M468.028 368.733h10.072l6.898-38.301 6.602 38.301h9.692l-10.623-49.389h-11.892z" />
<glyph unicode="&#xe90f;" horiz-adv-x="968" d="M938.088 419.391c-0.487 0.029-1.056 0.045-1.629 0.045-16.361 0-29.625-13.263-29.625-29.625 0-13.629 9.204-25.109 21.735-28.563l0.208-0.049c-8.049-9.657-16.667-18.275-26.002-26.063l-0.322-0.261c-7.567-6.245-15.978-12.312-24.772-17.824l-1.001-0.585c-5.848 17.696-22.238 30.24-41.558 30.24-24.121 0-43.675-19.554-43.675-43.675 0-7.759 2.023-15.046 5.571-21.361l-0.113 0.22c-11.935-3.301-24.038-5.967-36.227-8.041l-7.914-1.397c-2.007 6.573-8.018 11.271-15.126 11.271-8.455 0-15.358-6.647-15.767-15.001l-0.001-0.037c-10.242-0.55-20.483-1.312-30.725-1.481-2.985 28.258-26.687 50.085-55.488 50.085-29.458 0-53.582-22.835-55.637-51.769l-0.010-0.178c-20.178-3.93-38.14-10.593-54.565-19.694l0.944 0.48c-2.836-1.608-5.586-3.259-8.464-4.909-4.548 2.519-9.973 4.002-15.744 4.002-18.172 0-32.909-14.702-32.968-32.859v-0.006c0-0.016 0-0.035 0-0.054 0-4.276 0.824-8.359 2.321-12.101l-0.078 0.22c-2.201-2.624-4.232-5.29-6.39-7.956-6.449-8.434-12.684-17.952-18.219-27.913l-0.614-1.204c-1.524 8.464-2.836 17.352-3.767 26.070-1.281 12.109-2.012 26.159-2.012 40.38 0 8.127 0.239 16.198 0.709 24.207l-0.052-1.105c1.614 23.341 4.877 44.901 9.729 65.853l-0.545-2.795c2.751 10.326 4.994 20.78 8.464 30.852 1.693 5.079 3.132 10.199 4.994 15.236l5.756 15.024c1.777 5.079 3.978 9.945 6.221 14.812l6.602 14.728c4.486 10.157 9.565 20.145 13.627 30.513 7.039 15.985 14.663 36.679 21.219 57.842l1.211 4.539c4.055 10.176 8.047 18.531 12.501 26.595l-0.609-1.202c8.75 15.71 18.31 29.277 29.118 41.733l-0.255-0.301c5.036 5.798 10.411 11.342 15.997 16.674 8.982-22.004 30.215-37.228 55.005-37.228 32.723 0 59.249 26.527 59.249 59.249 0 13.887-4.777 26.658-12.778 36.759l0.094-0.123c12.9 4.273 28.691 8.17 44.871 10.93l2.021 0.285c2.46-8.957 10.53-15.429 20.111-15.429 11.285 0 20.473 8.977 20.812 20.18l0.001 0.031c11.977 0.846 24.038 1.1 36.058 0.973-0.136-0.828-0.242-1.833-0.294-2.853l-0.003-0.067c-0.009-0.274-0.014-0.597-0.014-0.921 0-16.899 13.699-30.598 30.598-30.598s30.598 13.699 30.598 30.598c0 16.899-13.699 30.598-30.598 30.598-15.078 0-27.609-10.907-30.134-25.261l-0.027-0.184q-18.113 0.762-36.311 0.254c-1.175 10.537-10.032 18.655-20.785 18.655-11.38 0-20.636-9.092-20.901-20.408v-0.025c0-0.592 0-1.1 0-1.651-19.19-2.543-36.19-6.187-52.679-11.026l2.444 0.615c-10.824 11.423-26.102 18.531-43.041 18.531-32.676 0-59.174-26.451-59.249-59.11v-0.007c0-0.014 0-0.031 0-0.047 0-4.483 0.509-8.848 1.472-13.039l-0.075 0.39c-7.45-6.332-14.203-12.79-20.561-19.619l-0.134-0.145c-6.834-7.414-13.374-15.431-19.415-23.83l-0.519-0.758c5.827 24.72 10.87 55.188 14.039 86.212l0.266 3.213c13.248 8.519 24.348 19.134 33.144 31.501l0.247 0.366c2.277-0.953 4.923-1.512 7.698-1.524h0.004c11.555 0.020 20.914 9.391 20.914 20.949 0 8.783-5.406 16.304-13.071 19.417l-0.14 0.050c0.212 1.524 0.466 3.005 0.592 4.528l0.296 8.126c0 2.666-0.423 5.375-0.635 8.041l-1.524 15.786c-0.026 0.937-0.041 2.039-0.041 3.145 0 3.362 0.138 6.691 0.408 9.983l-0.029-0.432c1.068-0.373 2.301-0.603 3.582-0.635h0.015c6.358 0 11.511 5.154 11.511 11.511s-5.154 11.511-11.511 11.511v0c2.47 10.149 5.458 18.88 9.128 27.244l-0.41-1.047c3.622 8.557 7.079 15.509 10.887 22.237l-0.561-1.077c3.956-2.159 8.66-3.44 13.66-3.47h0.009c0.109-0.001 0.237-0.002 0.365-0.002 16.595 0 30.048 13.453 30.048 30.048s-13.453 30.048-30.048 30.048c-16.595 0-30.048-13.453-30.048-30.048 0-11.155 6.079-20.891 15.105-26.075l0.146-0.077c-3.413-5.697-7.032-12.641-10.277-19.79l-0.557-1.371c-3.551-7.545-6.818-16.511-9.301-25.799l-0.264-1.16c-5.418-0.983-9.473-5.665-9.473-11.294 0-4.177 2.233-7.832 5.57-9.838l0.052-0.029c-0.458-4.127-0.72-8.912-0.72-13.759 0-0.088 0-0.176 0-0.263v0.014l1.227-15.955c0-2.624 0.508-5.205 0.423-7.787l-0.423-7.829c0-1.27-0.381-2.539-0.592-3.767-1.27 0.264-2.731 0.417-4.227 0.423h-0.005c-11.414-0.202-20.589-9.503-20.589-20.946 0-7.060 3.492-13.304 8.844-17.099l0.065-0.044c-8.002-10.644-17.512-19.629-28.317-26.823l-0.419-0.262c1.566 16.928 2.582 33.857 3.089 50.785q0.592 23.7 0 47.442c12.062 3.932 20.626 15.078 20.626 28.225 0 14.436-10.326 26.461-23.995 29.090l-0.186 0.030c-0.889 9.099-1.862 18.156-3.089 27.17-0.889 6.644-1.904 13.246-2.962 19.891 4.489 2.45 7.484 7.137 7.484 12.523 0 7.194-5.343 13.141-12.277 14.088l-0.074 0.008c-1.27 6.179-2.582 12.315-4.232 18.41-2.201 9.268-4.782 18.494-7.702 27.551 6.523 3.58 10.871 10.402 10.871 18.24 0 11.453-9.284 20.737-20.737 20.737s-20.737-9.284-20.737-20.737c0-11.453 9.284-20.737 20.737-20.737 0.062 0 0.123 0 0.185 0.001h-0.009c3.072 0.011 5.981 0.696 8.59 1.915l-0.126-0.053c2.539-9.057 4.782-18.198 6.644-27.424 1.185-5.925 2.285-11.85 3.301-17.817-7.507-0.483-13.412-6.69-13.412-14.277 0-7.9 6.404-14.305 14.305-14.305 1.185 0 2.337 0.144 3.438 0.416l-0.098-0.020c0.804-6.306 1.481-12.696 2.116-18.96 0.846-8.718 1.481-17.394 2.031-26.112-16.289-0.096-29.456-13.323-29.456-29.625 0-16.362 13.264-29.625 29.625-29.625 0.060 0 0.119 0 0.178 0.001h1.176q-0.212-22.811-1.608-45.58c-5.213-92.261-27.225-178.129-63.015-256.376l1.819 4.439c-2.031-4.698-4.232-9.311-6.602-13.881 0.254 4.232 0.466 8.464 0.677 12.696 0.179 4.936 0.281 10.734 0.281 16.556 0 18.020-0.978 35.811-2.885 53.324l0.191-2.167c-1.481 14.305-3.64 28.524-6.433 42.66 16.361 0 29.625 13.263 29.625 29.625s-13.263 29.625-29.625 29.625v0c-5.254-0.039-10.166-1.464-14.401-3.926l0.139 0.075q-5.459 16.632-12.146 32.714c-3.386 8.464-7.152 16.378-11.088 24.419 19.426 9.993 32.484 29.901 32.484 52.859 0 32.723-26.527 59.249-59.249 59.249-14.692 0-28.136-5.348-38.49-14.203l0.081 0.068c-17.88 20.199-36.744 38.526-56.898 55.36l-0.828 0.673c2.658 4.331 4.232 9.576 4.232 15.189 0 0.046 0 0.092 0 0.138v-0.007c-0.062 16.315-13.301 29.516-29.625 29.516-16.361 0-29.625-13.263-29.625-29.625s13.263-29.625 29.625-29.625c10.198 0 19.193 5.153 24.522 12.997l0.066 0.103c20.015-17.742 38.166-36.496 54.806-56.548l0.677-0.839c-11.212-10.796-18.176-25.936-18.176-42.702 0-32.685 26.466-59.189 59.137-59.249h0.006c0.002 0 0.004 0 0.007 0 7.245 0 14.181 1.319 20.583 3.73l-0.402-0.133c3.64-8.041 7.068-16.209 10.199-24.504 4.528-11.85 8.464-23.911 11.892-36.1-4.468-5.158-7.191-11.935-7.191-19.348 0-12.122 7.281-22.544 17.708-27.131l0.19-0.075q3.978-22.938 5.671-46.13c0.807-10.324 1.267-22.355 1.267-34.494 0-11.078-0.383-22.067-1.137-32.954l0.082 1.469c-1.363-21.731-4.24-41.887-8.57-61.496l0.487 2.628-6.602-15.532c-2.116-5.205-3.851-10.58-5.798-15.87-4.232-10.538-6.898-21.414-10.157-32.206-5.238-18.912-9.516-41.577-11.981-64.784l-0.165-1.914c-1.19-12.045-1.868-26.035-1.868-40.184 0-9.79 0.325-19.505 0.964-29.133l-0.070 1.307c1.248-16.603 3.2-31.539 5.903-46.212l-0.401 2.621c-3.089 2.328-6.179 4.698-9.184 7.068q-8.464 6.644-16.336 13.754c1.704 3.315 2.704 7.232 2.709 11.383v0.001c0 14.328-11.615 25.943-25.943 25.943v0c-4.29-0.017-8.324-1.096-11.859-2.987l0.136 0.067q-12.358 13.5-23.657 27.89c-1.263 13.495-9.733 24.746-21.479 29.956l-0.232 0.092c-25.61 38.3-46.084 82.727-59.020 130.26l-0.737 3.179c-6.753 24.189-11.781 52.622-14.077 81.824l-0.101 1.591c25.719 9.516 43.72 33.83 43.72 62.348 0 29.086-18.725 53.798-44.777 62.74l-0.466 0.139c-2.374 15.202-6.809 28.882-13.067 41.497l0.371-0.827c-9.266 17.735-21.964 32.49-37.322 43.856l-0.344 0.243c0.103 0.633 0.179 1.392 0.21 2.162l0.001 0.039c0.011 0.256 0.017 0.557 0.017 0.859 0 11.944-9.682 21.626-21.626 21.626s-21.626-9.682-21.626-21.626c0-11.944 9.682-21.626 21.626-21.626 10.563 0 19.357 7.573 21.249 17.586l0.021 0.135c14.941-11.798 26.962-26.609 35.265-43.57l0.327-0.74c5.158-11.165 9.001-24.119 10.879-37.702l0.082-0.726c-5.131 1.424-11.023 2.243-17.106 2.243-36.649 0-66.359-29.71-66.359-66.359 0-36.578 29.594-66.244 66.145-66.359h0.011c5.523 0.015 10.874 0.725 15.978 2.045l-0.447-0.098c3.631-69.785 21.994-134.507 52.014-192.193l-1.229 2.595c-19.582 1.61-37.687 5.317-54.932 10.93l1.692-0.476c5.749 9.635 9.148 21.249 9.148 33.657 0 36.719-29.767 66.486-66.486 66.486-13.155 0-25.418-3.821-35.739-10.413l0.268 0.16c-2.751 3.216-5.544 6.306-8.464 9.311-9.97 10.421-22.615 18.203-36.833 22.247l-0.579 0.141c-4.354 1.081-9.353 1.702-14.497 1.702-6.406 0-12.587-0.962-18.407-2.75l0.443 0.117c-5.805 7.681-14.923 12.594-25.189 12.594-17.39 0-31.487-14.097-31.487-31.487s14.097-31.487 31.487-31.487c17.39 0 31.487 14.097 31.487 31.487 0 6.398-1.908 12.35-5.186 17.318l0.073-0.118c4.38 1.14 9.408 1.795 14.589 1.795 5.651 0 11.12-0.779 16.306-2.235l-0.424 0.102c13.931-4.495 25.733-12.323 34.89-22.566l0.067-0.076c2.666-2.836 5.248-5.84 7.66-8.93-16.461-12.253-27.009-31.654-27.009-53.519 0-36.743 29.786-66.529 66.529-66.529 20.857 0 39.472 9.598 51.67 24.618l0.097 0.123c7.077-2.82 15.944-5.649 25.029-7.924l1.548-0.328c10.966-2.776 24.184-5.046 37.686-6.346l1.122-0.087c1.82-3.301 3.809-6.56 5.713-9.861-18.443-1.869-32.715-17.315-32.715-36.095 0-20.031 16.238-36.269 36.269-36.269 13.971 0 26.096 7.899 32.155 19.474l0.095 0.2c5.205-6.687 10.538-13.204 16.082-19.595-1.724-3.324-2.739-7.256-2.751-11.423v-0.004c0-0.019 0-0.041 0-0.063 0-14.281 11.577-25.858 25.858-25.858 3.832 0 7.47 0.834 10.742 2.33l-0.161-0.066c5.671-5.29 11.469-10.58 17.394-15.616 8.464-7.195 17.182-14.008 26.578-20.526 5.876-24.081 12.548-44.461 20.561-64.151l-1.094 3.040c9.695-24.198 19.636-44.413 30.873-63.782l-1.249 2.332q8.464-14.77 18.071-29.032c3.216-4.782 6.517-9.48 9.945-14.093s6.814-9.057 11.13-14.093l27.72 25.139c-2.92 3.216-6.517 7.406-9.649 11.427s-6.433 8.21-9.48 12.485c-6.179 8.464-12.061 17.225-17.606 26.197-9.998 15.74-19.894 34.157-28.488 53.286l-1.137 2.832c-8.408 18.437-16.209 40.468-22.158 63.247l-0.653 2.943c7.819 20.204 17.655 37.666 29.596 53.446l-0.395-0.544c5.527-4.359 12.592-6.992 20.272-6.992 18.161 0 32.883 14.722 32.883 32.883 0 6.892-2.12 13.288-5.744 18.573l0.073-0.112c1.397 0.889 2.751 1.777 4.232 2.624 13.515 8.099 29.168 14.575 45.78 18.597l1.154 0.236c4.563-26.604 27.456-46.595 55.018-46.595 29.48 0 53.619 22.87 55.642 51.836l0.010 0.176c10.58 0.508 21.161 1.693 31.698 2.582h0.804c2.656-5.195 7.97-8.69 14.101-8.69 7.706 0 14.122 5.521 15.508 12.823l0.016 0.098c2.962 0.592 5.925 1.185 8.887 1.862 15.622 3.154 28.506 6.546 41.108 10.569l-2.723-0.751c8.052-10.489 20.596-17.185 34.703-17.185 24.098 0 43.633 19.535 43.633 43.633 0 0.001 0 0.001 0 0.002v0c-0.013 3.564-0.444 7.021-1.247 10.333l0.062-0.303c9.949 6.565 18.578 13.177 26.719 20.333l-0.268-0.231c9.511 8.421 18.044 17.504 25.69 27.313l0.338 0.45c2.386-0.742 5.133-1.188 7.978-1.227h0.021c16.525 0 29.921 13.396 29.921 29.921s-13.396 29.921-29.921 29.921c0 0 0 0 0 0v0z" />
<glyph unicode="&#xe910;" horiz-adv-x="968" d="M579.29 378.509c0-69.676-56.483-126.159-126.159-126.159s-126.159 56.483-126.159 126.159c0 69.676 56.483 126.159 126.159 126.159s126.159-56.483 126.159-126.159z" />
<glyph unicode="&#xe911;" horiz-adv-x="968" d="M393.797 395.818v-1.481c0.071-0.597 0.111-1.288 0.111-1.989 0-3.891-1.247-7.491-3.364-10.421l0.036 0.052c-2.601-2.335-6.058-3.762-9.848-3.762-0.541 0-1.076 0.029-1.602 0.086l0.065-0.006c-0.483-0.054-1.044-0.085-1.611-0.085-4.021 0-7.68 1.544-10.418 4.072l0.010-0.010c-2.235 3.303-3.569 7.376-3.569 11.76 0 0.717 0.036 1.426 0.105 2.125l-0.007-0.088v15.278c-0.065 0.622-0.102 1.344-0.102 2.074 0 4.386 1.335 8.461 3.62 11.84l-0.048-0.075c2.745 2.658 6.492 4.296 10.621 4.296 0.492 0 0.979-0.023 1.459-0.069l-0.061 0.005c0.513 0.074 1.106 0.116 1.709 0.116 7.012 0 12.696-5.684 12.696-12.696 0-0.563-0.037-1.117-0.108-1.661l0.007 0.064v-2.412h-10.072v1.481c0.025 0.29 0.039 0.628 0.039 0.969 0 1.747-0.373 3.407-1.043 4.905l0.030-0.076c-0.607 1.142-1.789 1.906-3.149 1.906-0.038 0-0.077-0.001-0.115-0.002h0.006c-0.151 0.019-0.326 0.030-0.503 0.030-1.604 0-3-0.893-3.718-2.209l-0.011-0.022c-0.825-1.784-1.306-3.872-1.306-6.073 0-0.365 0.013-0.727 0.039-1.085l-0.003 0.048v-15.236c-0.028-0.434-0.045-0.941-0.045-1.451 0-2.691 0.45-5.277 1.279-7.687l-0.050 0.166c0.667-1.515 2.155-2.554 3.885-2.554 0.122 0 0.243 0.005 0.363 0.015l-0.016-0.001c0.035-0.001 0.076-0.002 0.118-0.002 1.482 0 2.759 0.875 3.343 2.137l0.009 0.023c0.698 1.581 1.104 3.425 1.104 5.363 0 0.391-0.017 0.779-0.049 1.162l0.003-0.050v1.481z" />
<glyph unicode="&#xe912;" horiz-adv-x="968" d="M407.721 378.255c-0.137-0.008-0.298-0.013-0.459-0.013-2.244 0-4.271 0.929-5.718 2.423l-0.002 0.002c-1.38 1.636-2.219 3.767-2.219 6.095 0 0.208 0.007 0.415 0.020 0.62l-0.001-0.028v2.074c-0.037 0.338-0.059 0.73-0.059 1.126 0 2.937 1.168 5.601 3.066 7.552l-0.002-0.003c2.52 1.61 5.592 2.567 8.889 2.567 0.536 0 1.066-0.025 1.589-0.075l-0.067 0.005h2.751v4.232c0.006 0.094 0.010 0.204 0.010 0.315 0 0.949-0.272 1.835-0.742 2.583l0.012-0.020c-0.461 0.598-1.177 0.98-1.983 0.98-0.062 0-0.123-0.002-0.184-0.007h0.008c-0.080 0.007-0.173 0.011-0.267 0.011-0.938 0-1.78-0.412-2.354-1.066l-0.003-0.004c-0.501-0.723-0.8-1.618-0.8-2.583 0-0.208 0.014-0.413 0.041-0.614l-0.003 0.023v-0.973h-9.057v0.973c-0.032 0.276-0.050 0.595-0.050 0.919 0 2.553 1.13 4.842 2.917 6.394l0.010 0.009c2.289 1.49 5.090 2.377 8.097 2.377 0.427 0 0.85-0.018 1.268-0.053l-0.055 0.004c0.326 0.027 0.706 0.043 1.090 0.043 3.055 0 5.88-0.984 8.176-2.652l-0.040 0.028c1.874-1.805 3.039-4.335 3.039-7.138 0-0.288-0.012-0.573-0.036-0.855l0.003 0.037v-24.631h-8.803v2.836l-0.381-0.466c-1.725-1.893-4.201-3.077-6.953-3.077-0.264 0-0.525 0.011-0.783 0.032l0.034-0.002zM415.55 395.183h-1.185c-0.187 0.020-0.404 0.032-0.623 0.032-1.493 0-2.859-0.54-3.914-1.436l0.009 0.007c-0.866-1.096-1.389-2.498-1.389-4.022 0-0.238 0.013-0.473 0.038-0.704l-0.003 0.029v-2.116c-0.005-0.068-0.007-0.148-0.007-0.228 0-0.885 0.323-1.694 0.858-2.316l-0.004 0.005c0.532-0.553 1.279-0.897 2.106-0.897 0.078 0 0.155 0.003 0.232 0.009l-0.010-0.001c0.039-0.002 0.086-0.003 0.132-0.003 1.229 0 2.295 0.698 2.822 1.72l0.008 0.018c0.627 1.326 0.993 2.881 0.993 4.521 0 0.226-0.007 0.45-0.021 0.673l0.002-0.031z" />
<glyph unicode="&#xe913;" horiz-adv-x="968" d="M432.563 413.424h8.464v-4.444c0.349 0.653 0.699 1.206 1.086 1.732l-0.028-0.039c1.941 2.115 4.718 3.436 7.804 3.436 0.143 0 0.285-0.003 0.427-0.008l-0.020 0.001v-7.66c-0.291 0.016-0.631 0.026-0.973 0.026s-0.683-0.009-1.020-0.028l0.047 0.002c-0.216 0.025-0.467 0.039-0.721 0.039-1.855 0-3.532-0.76-4.737-1.985l-0.001-0.001c-0.935-1.503-1.489-3.328-1.489-5.282 0-0.48 0.033-0.953 0.098-1.416l-0.006 0.053v-18.96h-9.099z" />
<glyph unicode="&#xe914;" horiz-adv-x="968" d="M466.843 378.255c-0.33-0.033-0.713-0.052-1.101-0.052-3.1 0-5.918 1.212-8.004 3.189l0.005-0.005c-1.811 2.48-2.897 5.589-2.897 8.952 0 0.484 0.022 0.962 0.066 1.435l-0.005-0.061v6.771c-0.053 0.538-0.083 1.163-0.083 1.795 0 3.821 1.103 7.384 3.008 10.388l-0.047-0.079c2.162 2.213 5.175 3.585 8.51 3.585 0.461 0 0.916-0.026 1.364-0.077l-0.055 0.005c0.476 0.062 1.027 0.098 1.586 0.098 3.236 0 6.194-1.191 8.46-3.158l-0.016 0.013c1.734-2.724 2.763-6.043 2.763-9.603 0-0.657-0.035-1.306-0.103-1.945l0.007 0.079v-5.036h-16.378v-1.058c-0.026-0.449-0.041-0.975-0.041-1.504 0-2.275 0.277-4.485 0.8-6.598l-0.039 0.188c0.396-1.147 1.467-1.956 2.726-1.956 0.083 0 0.165 0.004 0.247 0.010l-0.011-0.001c0.084-0.008 0.181-0.012 0.28-0.012 1.108 0 2.087 0.553 2.676 1.398l0.007 0.011c0.471 1.038 0.745 2.25 0.745 3.527 0 0.383-0.025 0.76-0.073 1.13l0.005-0.044v1.016h9.014v-1.016c0.025-0.269 0.039-0.582 0.039-0.899 0-2.985-1.267-5.674-3.292-7.56l-0.006-0.006c-2.519-1.847-5.681-2.956-9.102-2.956-0.371 0-0.74 0.013-1.105 0.039l0.049-0.003zM471.076 399.796v1.947c0.022 0.285 0.034 0.616 0.034 0.951 0 1.618-0.292 3.168-0.826 4.599l0.030-0.091c-0.519 0.903-1.478 1.501-2.577 1.501-0.121 0-0.24-0.007-0.357-0.021l0.014 0.001c-0.077 0.007-0.166 0.011-0.256 0.011-1.197 0-2.223-0.73-2.657-1.77l-0.007-0.019c-0.509-1.623-0.802-3.489-0.802-5.423 0-0.43 0.014-0.856 0.043-1.278l-0.003 0.057v-0.508z" />
<glyph unicode="&#xe915;" horiz-adv-x="968" d="M497.23 378.255c-0.33-0.033-0.713-0.052-1.101-0.052-3.1 0-5.918 1.212-8.004 3.189l0.005-0.005c-1.786 2.482-2.856 5.584-2.856 8.935 0 0.49 0.023 0.974 0.068 1.452l-0.005-0.061v6.771c-0.050 0.526-0.079 1.136-0.079 1.754 0 3.834 1.101 7.41 3.004 10.431l-0.048-0.081c2.162 2.213 5.175 3.585 8.51 3.585 0.461 0 0.916-0.026 1.364-0.077l-0.055 0.005c0.472 0.061 1.018 0.096 1.573 0.096 3.24 0 6.202-1.19 8.474-3.157l-0.016 0.014c1.734-2.724 2.763-6.043 2.763-9.603 0-0.657-0.035-1.306-0.103-1.945l0.007 0.079v-5.036h-16.378v-1.058c-0.026-0.449-0.041-0.975-0.041-1.504 0-2.275 0.277-4.485 0.8-6.598l-0.039 0.188c0.396-1.147 1.467-1.956 2.726-1.956 0.083 0 0.165 0.004 0.247 0.010l-0.011-0.001c0.097-0.010 0.208-0.016 0.322-0.016 1.097 0 2.063 0.556 2.634 1.402l0.007 0.011c0.496 1.044 0.785 2.268 0.785 3.56 0 0.371-0.024 0.737-0.070 1.095l0.004-0.042v1.016h9.014v-1.016c0.025-0.269 0.039-0.582 0.039-0.899 0-2.985-1.267-5.674-3.292-7.56l-0.006-0.006c-2.521-1.851-5.685-2.962-9.109-2.962-0.399 0-0.794 0.015-1.185 0.045l0.052-0.003zM501.674 399.796v1.947c0.022 0.286 0.035 0.62 0.035 0.957 0 1.616-0.292 3.163-0.826 4.593l0.030-0.091c-0.519 0.903-1.478 1.501-2.577 1.501-0.121 0-0.24-0.007-0.357-0.021l0.014 0.001c-0.077 0.007-0.166 0.011-0.256 0.011-1.197 0-2.223-0.73-2.657-1.77l-0.007-0.019c-0.509-1.623-0.802-3.489-0.802-5.423 0-0.43 0.014-0.856 0.043-1.278l-0.003 0.057v-0.508z" />
<glyph unicode="&#xe916;" horiz-adv-x="968" d="M517.163 413.424h8.464v-4.444c0.324 0.646 0.675 1.201 1.075 1.716l-0.017-0.023c1.934 2.115 4.706 3.437 7.786 3.437 0.149 0 0.298-0.003 0.446-0.009l-0.021 0.001v-7.66c-0.291 0.016-0.631 0.025-0.973 0.025s-0.683-0.009-1.020-0.027l0.047 0.002c-0.221 0.026-0.478 0.041-0.737 0.041-1.85 0-3.522-0.761-4.721-1.987l-0.001-0.001c-0.933-1.51-1.486-3.341-1.486-5.301 0-0.474 0.032-0.94 0.095-1.397l-0.006 0.053v-18.96h-9.057z" />
<glyph unicode="&#xe917;" horiz-adv-x="968" d="M398.241 368.733h13.331c0.558 0.056 1.207 0.087 1.862 0.087 4.406 0 8.479-1.43 11.778-3.85l-0.056 0.039c2.664-2.978 4.293-6.932 4.293-11.265 0-0.504-0.022-1.002-0.065-1.495l0.005 0.064v-13.839c0.086-0.756 0.135-1.631 0.135-2.518 0-4.704-1.375-9.087-3.746-12.768l0.056 0.093c-3.070-2.579-7.065-4.147-11.427-4.147-0.746 0-1.481 0.046-2.203 0.135l0.086-0.009h-13.881zM408.356 326.75h2.666c0.311-0.042 0.671-0.066 1.037-0.066 2.055 0 3.932 0.763 5.363 2.021l-0.009-0.008c1.082 1.776 1.722 3.924 1.722 6.222 0 0.462-0.026 0.918-0.076 1.366l0.005-0.055v16.336c0.035 0.313 0.055 0.675 0.055 1.042 0 2.203-0.719 4.238-1.936 5.883l0.019-0.027c-1.574 1.22-3.577 1.955-5.752 1.955-0.344 0-0.684-0.018-1.019-0.054l0.042 0.004h-2.074z" />
<glyph unicode="&#xe918;" horiz-adv-x="968" d="M437.854 319.259v49.473h24.673v-7.364h-14.558v-13.077h14.093v-7.364h-14.093v-14.305h14.855v-7.322z" />
<glyph unicode="&#xe919;" horiz-adv-x="968" d="M468.028 368.733h10.072l6.898-38.301 6.602 38.301h9.692l-10.623-49.389h-11.892z" />
<glyph unicode="&#xe91a;" glyph-name="clip" horiz-adv-x="748" d="M744.243 613.478l-326.519-565.589c-39.426-67.392-111.449-111.941-193.877-111.941-123.637 0-223.864 100.227-223.864 223.864 0 41.209 11.134 79.817 30.559 112.98l-0.572-1.057 344.678 596.924c32.165 54.983 90.925 91.329 158.174 91.329 100.867 0 182.636-81.769 182.636-182.636 0-33.618-9.083-65.114-24.929-92.169l0.467 0.862-290.543-503.262c-25.093-42.89-70.932-71.242-123.392-71.242-78.689 0-142.479 63.79-142.479 142.479 0 26.228 7.087 50.801 19.451 71.909l-0.364-0.673 272.452 471.859c5.074 8.673 14.343 14.406 24.951 14.406 15.912 0 28.811-12.899 28.811-28.811 0-5.303-1.433-10.272-3.933-14.54l0.074 0.136-272.384-471.859c-7.139-12.161-11.356-26.785-11.356-42.394 0-46.84 37.971-84.811 84.811-84.811 31.231 0 58.52 16.881 73.238 42.017l0.217 0.401 290.543 503.262c11.059 18.274 17.603 40.352 17.603 63.959 0 69.034-55.963 124.996-124.996 124.996-46.613 0-87.267-25.515-108.757-63.34l-0.323-0.618-344.678-596.992c-14.003-23.842-22.273-52.512-22.273-83.115 0-91.797 74.416-166.213 166.213-166.213 61.195 0 114.666 33.070 143.516 82.314l0.425 0.784 326.519 565.589c5.077 8.69 14.36 14.436 24.986 14.436 15.928 0 28.84-12.912 28.84-28.84 0-5.303-1.431-10.272-3.928-14.541l0.074 0.136z" />
<glyph unicode="&#xe91b;" glyph-name="com" horiz-adv-x="1504" d="M1396.796 960h-1289.616c-59.174-0.049-107.131-48.006-107.18-107.175v-597.273c0.098-59.154 48.026-107.082 107.17-107.18h776.631l121.010-177.97c12.202-17.643 31.022-29.965 52.797-33.393l0.447-0.058c3.458-0.55 7.446-0.865 11.507-0.865 0.057 0 0.114 0 0.171 0h-0.009c18.678 0.041 35.827 6.551 49.336 17.407l-0.154-0.12 244.699 195.171h32.932c59.154 0.098 107.082 48.026 107.18 107.17v597.277c-0.196 58.989-47.938 106.762-106.897 107.007h-0.023zM1426.011 255.552c-0.049-16.115-13.1-29.166-29.21-29.215h-46.594c-9.24-0.024-17.715-3.281-24.358-8.699l0.070 0.055-255.33-203.642c-0.077-0.028-0.166-0.044-0.259-0.044s-0.182 0.016-0.265 0.046l0.005-0.002c-0.077-0.028-0.166-0.044-0.259-0.044s-0.182 0.016-0.265 0.046l0.005-0.002-132.938 194.998c-7.059 10.457-18.852 17.251-32.235 17.287h-797.199c-16.115 0.049-29.166 13.1-29.215 29.21v597.273c0 16.135 13.080 29.215 29.215 29.215h1289.616c16.135 0 29.215-13.080 29.215-29.215v0zM338.049 438.276c-0.026 0-0.056 0-0.086 0-73.897 0-133.802 59.905-133.802 133.802s59.905 133.802 133.802 133.802c73.897 0 133.802-59.905 133.802-133.802v0c-0.098-73.827-59.895-133.654-133.701-133.802h-0.014zM338.049 610.628c-21.291 0-38.55-17.26-38.55-38.55s17.26-38.55 38.55-38.55c21.291 0 38.55 17.26 38.55 38.55v0c-0.098 21.234-17.31 38.415-38.545 38.464h-0.005zM755.705 438.276c-73.897 0-133.802 59.905-133.802 133.802s59.905 133.802 133.802 133.802c73.897 0 133.802-59.905 133.802-133.802v0c-0.098-73.857-59.945-133.704-133.792-133.802h-0.009zM755.705 610.628c-21.291 0-38.55-17.26-38.55-38.55s17.26-38.55 38.55-38.55c21.291 0 38.55 17.26 38.55 38.55v0c-0.098 21.234-17.31 38.415-38.545 38.464h-0.005zM1173.792 438.276c-73.897 0-133.802 59.905-133.802 133.802s59.905 133.802 133.802 133.802c73.897 0 133.802-59.905 133.802-133.802v0c-0.098-73.857-59.945-133.704-133.792-133.802h-0.009zM1173.792 610.628c-21.291 0-38.55-17.26-38.55-38.55s17.26-38.55 38.55-38.55c21.291 0 38.55 17.26 38.55 38.55v0c-0.049 21.253-17.29 38.464-38.55 38.464 0 0 0 0 0 0v0z" />
<glyph unicode="&#xe91c;" glyph-name="comment" horiz-adv-x="1078" d="M175.104 151.637c-96.718 0.049-175.104 78.465-175.104 175.189v0 458.069c0 96.707 78.397 175.104 175.104 175.104v0h727.552c96.724 0 175.141-78.386 175.189-175.099v-458.074c0-96.754-78.435-175.189-175.189-175.189v0h-311.808l-290.133-205.739c-8.715-6.305-19.617-10.086-31.403-10.086-29.785 0-53.931 24.146-53.931 53.931 0 0.036 0 0.071 0 0.107v-0.006 162.133z" />
<glyph unicode="&#xe91d;" glyph-name="edit" d="M1013.79 805.305l-144.486 144.55c-6.305 6.317-15.022 10.225-24.652 10.225s-18.347-3.908-24.651-10.225l-471.324-471.324c-3.995-3.992-7.028-8.946-8.723-14.485l-0.065-0.248v-1.099c0-0.905-0.517-1.874-0.711-2.843l-37.349-180.93c-0.459-2.121-0.722-4.557-0.722-7.054 0-19.236 15.593-34.829 34.829-34.829 2.498 0 4.934 0.263 7.282 0.763l-0.228-0.041 184.937 38.448c5.761 1.74 10.694 4.752 14.669 8.724l471.452 471.452c6.125 6.271 9.904 14.858 9.904 24.327 0 9.598-3.883 18.29-10.163 24.59l0.001-0.001zM500.272 341.090l-119.931-24.749 24.749 119.995 295.045 295.045 95.247-95.182zM845.396 686.214l-95.182 95.182 94.407 94.407 95.182-95.182zM876.542-64h-728.761c-81.565 0.073-147.671 66.157-147.781 147.706v728.513c0.11 81.56 66.216 147.643 147.774 147.717h363.87c21.52 0 38.965-17.445 38.965-38.965s-17.445-38.965-38.965-38.965v0h-363.863c-38.528-0.037-69.751-31.26-69.787-69.784v-728.506c0.037-38.528 31.26-69.751 69.784-69.787h728.764c38.528 0.037 69.751 31.26 69.787 69.784v364.384c0 21.52 17.445 38.965 38.965 38.965s38.965-17.445 38.965-38.965v0-364.38c-0.11-81.537-66.179-147.606-147.706-147.717h-0.011z" />
<glyph unicode="&#xe91e;" horiz-adv-x="1475" d="M1474.799 306.278h-215.040l-458.479 433.493c-16.65 15.788-39.2 25.497-64.017 25.497s-47.368-9.709-64.059-25.536l0.042 0.039-458.445-433.493h-215.040l657.613 621.909c20.751 19.677 48.856 31.777 79.787 31.777s59.036-12.101 79.839-31.826l-0.052 0.049z" />
<glyph unicode="&#xe91f;" horiz-adv-x="1475" d="M1209.071 194.185v-202.479c0-0.030 0-0.067 0-0.103 0-30.661-24.817-55.525-55.459-55.603h-255.632v193.126c0 0.030 0 0.066 0 0.103 0 24.282-19.656 43.974-43.924 44.032h-233.341c-24.274-0.058-43.93-19.75-43.93-44.032 0-0.036 0-0.072 0-0.108v0.006-193.126h-255.59c-30.65 0.078-55.467 24.942-55.467 55.603 0 0.036 0 0.072 0 0.108v-0.006 202.479c0 0.007 0 0.016 0 0.025 0 28.487 11.939 54.186 31.086 72.365l0.043 0.041 376.593 356.762c16.614 15.782 39.131 25.49 63.915 25.49s47.3-9.707 63.955-25.528l-0.040 0.038 376.627-356.762c19.209-18.221 31.161-43.93 31.164-72.43v0z" />
<glyph unicode="&#xe920;" glyph-name="like" horiz-adv-x="999" d="M897.024 248.747l-207.616-207.616c-7.745-7.872-18.514-12.75-30.421-12.75s-22.676 4.878-30.416 12.745l-0.006 0.006-15.36 15.445c-19.527 17.576-45.054 28.831-73.167 30.365l-0.305 0.013h-334.763c-25.941 1.302-47.819 17.423-57.437 40.017l-0.163 0.431-141.739 393.472c-4.007 8.265-6.349 17.977-6.349 28.235 0 36.43 29.532 65.963 65.963 65.963 2.326 0 4.624-0.12 6.888-0.355l-0.283 0.024h278.613c4.381 11.374 6.918 24.533 6.918 38.285 0 19.052-4.87 36.966-13.433 52.565l0.286-0.568c-34.38 34.039-55.668 81.247-55.668 133.426 0 2.323 0.042 4.636 0.126 6.939l-0.010-0.333c4.903 29.956 15.95 56.653 31.833 79.767l-0.431-0.663c41.387 54.187 101.632 41.643 101.632-6.997 0-57.771-30.549-110.251 78.165-181.589 75.118-56.603 136.545-127.102 181.331-208.086l1.709-3.37s13.568-14.421 30.464-31.147l183.808-183.808c7.693-7.716 12.45-18.364 12.45-30.123 0-11.843-4.826-22.56-12.618-30.29l-0.003-0.003zM942.165 238.507l-246.101-246.101 56.32-56.32 246.187 246.101z" />
<glyph unicode="&#xe921;" horiz-adv-x="757" d="M504.081 274.671c-3.937 2.683-8.797 4.284-14.032 4.284-8.649 0-16.277-4.37-20.796-11.023l-0.056-0.088c-34.133-50.244-71.953-102.878-112.981-156.467-3.233-4.189-5.183-9.513-5.183-15.292 0-13.89 11.26-25.151 25.151-25.151 8.111 0 15.326 3.84 19.925 9.8l0.043 0.059c41.643 54.613 80.213 107.793 114.688 158.857 2.735 3.963 4.369 8.87 4.369 14.158 0 8.656-4.378 16.289-11.040 20.807l-0.088 0.056z" />
<glyph unicode="&#xe922;" horiz-adv-x="757" d="M378.402 960c-208.892-0.233-378.169-169.51-378.402-378.38v-0.022c0-202.001 344.951-619.179 359.629-636.791 4.502-5.387 11.223-8.789 18.739-8.789s14.237 3.402 18.708 8.751l0.031 0.039c14.677 17.681 359.629 434.79 359.629 636.791-0.233 208.868-169.471 378.13-378.307 378.402h-0.026zM378.402-0.922c-30.583 38.229-94.14 119.603-157.013 212.651-112.913 167.049-172.578 294.912-172.578 369.937 0 182.047 147.578 329.626 329.626 329.626s329.626-147.578 329.626-329.626v0c0-75.093-59.665-202.889-172.578-369.937-62.942-92.979-126.498-174.49-157.082-212.651z" />
<glyph unicode="&#xe923;" horiz-adv-x="757" d="M378.334 776.841c-3.632 0.228-7.877 0.358-12.151 0.358-114.050 0-206.507-92.456-206.507-206.507s92.456-206.507 206.507-206.507c114.045 0 206.497 92.447 206.507 206.489v0.001c0.049 1.656 0.077 3.604 0.077 5.559 0 108.64-86.318 197.12-194.113 200.598l-0.319 0.008zM378.334 415.027c-2.734-0.171-5.93-0.268-9.148-0.268-86.226 0-156.126 69.9-156.126 156.126s69.9 156.126 156.126 156.126c86.204 0 156.090-69.864 156.126-156.059v-0.004c0.041-1.324 0.065-2.88 0.065-4.442 0-82.155-65.283-149.063-146.803-151.677l-0.24-0.006z" />
<glyph unicode="&#xe924;" glyph-name="log" horiz-adv-x="1246" d="M501.931 78.746c-200.35 2.198-361.917 165.124-361.917 365.786 0 3.068 0.038 6.127 0.113 9.176l-0.009-0.452c4.143 196.849 160.634 355.828 356.085 363.939l0.745 0.025c1.103 0.012 2.407 0.019 3.712 0.019 141.682 0 264.309-81.583 323.467-200.334l0.945-2.096c8.871-17.8 26.916-29.83 47.777-29.901h1.648c41.645 0.659 75.151 34.573 75.151 76.313 0 13.64-3.578 26.445-9.847 37.526l0.198-0.38c-86.42 157.035-250.799 261.673-439.618 261.673-0.943 0-1.885-0.003-2.827-0.008l0.145 0.001c-281.824-1.251-509.803-230.002-509.803-512 0-282.772 229.232-512.005 512.005-512.005 0.774 0 1.548 0.002 2.321 0.005h-0.12c188.187 0.694 351.809 105.19 436.66 259.185l1.305 2.584c6.036 10.676 9.593 23.445 9.593 37.044 0 41.732-33.494 75.641-75.066 76.312l-0.063 0.001h-1.638c-20.893-0.148-38.929-12.229-47.646-29.76l-0.14-0.312c-59.962-120.432-182.002-201.834-323.106-202.342h-0.068zM540.911 528.043h625.493c44.206 0 80.043-35.836 80.043-80.043v-0.034c0-44.206-35.836-80.043-80.043-80.043h-625.493c-44.206 0-80.043 35.836-80.043 80.043v0.034c0 44.206 35.836 80.043 80.043 80.043z" />
<glyph unicode="&#xe925;" glyph-name="logout" horiz-adv-x="836" d="M719.46 345.805c-1.687-163.64-134.735-295.646-298.614-295.646-2.523 0-5.039 0.031-7.548 0.094l0.371-0.007c-160.707 3.374-290.501 131.126-297.131 290.688l-0.020 0.608c-0.010 0.91-0.016 1.984-0.016 3.060 0 115.656 66.597 215.757 163.534 264.048l1.711 0.771c14.54 7.229 24.372 21.954 24.44 38.982v1.373c-0.725 33.969-28.434 61.228-62.509 61.228-11.057 0-21.443-2.87-30.454-7.906l0.317 0.163c-128.189-70.55-213.605-204.736-213.605-358.873 0-0.781 0.002-1.562 0.007-2.342l-0.001 0.121c6.343-225.966 191.036-406.729 417.948-406.729 228.172 0 413.654 182.775 418.024 409.901l0.006 0.409c-0.568 153.641-85.88 287.226-211.603 356.505l-2.109 1.066c-8.667 4.834-19.013 7.681-30.024 7.681-34.073 0-61.78-27.256-62.508-61.155l-0.001-0.068v-1.364c0.111-17.070 9.978-31.81 24.3-38.933l0.254-0.115c98.254-48.902 164.695-148.409 165.229-263.488v-0.072zM352.682 384v510.636c0 36.1 29.265 65.364 65.364 65.364s65.364-29.265 65.364-65.364v-510.636c0-36.1-29.265-65.364-65.364-65.364s-65.364 29.265-65.364 65.364z" />
<glyph unicode="&#xe926;" glyph-name="mail" horiz-adv-x="1520" d="M1380.285 639.688l-497.98-273.462c-30.663-21.026-65.721-39.993-102.74-55.158l-3.781-1.371c-44.405-12.573-104.176 34.925-141.197 55.381l-634.587 355.037v-695.057c-0.004-0.301-0.006-0.656-0.006-1.012 0-48.075 38.524-87.153 86.386-88.045l0.084-0.001h1347.505c47.946 0.894 86.47 39.971 86.47 88.046 0 0.356-0.002 0.711-0.006 1.066l0.001-0.054v691.614zM756.974 465.462l762.412 418.7c-5.913 42.596-41.76 75.138-85.345 75.836l-0.072 0.001h-1347.505c-42.312-0.633-77.298-31.215-84.735-71.457l-0.083-0.538z" />
<glyph unicode="&#xe927;" glyph-name="media" horiz-adv-x="1504" d="M1396.796 960h-1289.616c-59.174-0.049-107.131-48.006-107.18-107.175v-597.273c0.098-59.154 48.026-107.082 107.17-107.18h776.631l121.010-177.97c12.202-17.643 31.022-29.965 52.797-33.393l0.447-0.058c3.458-0.55 7.446-0.865 11.507-0.865 0.057 0 0.114 0 0.171 0h-0.009c18.678 0.041 35.827 6.551 49.336 17.407l-0.154-0.12 244.699 195.171h32.932c59.154 0.098 107.082 48.026 107.18 107.17v597.277c-0.196 58.989-47.938 106.762-106.897 107.007h-0.023zM1426.011 255.552c-0.049-16.115-13.1-29.166-29.21-29.215h-46.594c-9.24-0.024-17.715-3.281-24.358-8.699l0.070 0.055-255.33-203.642c-0.077-0.028-0.166-0.044-0.259-0.044s-0.182 0.016-0.265 0.046l0.005-0.002c-0.077-0.028-0.166-0.044-0.259-0.044s-0.182 0.016-0.265 0.046l0.005-0.002-132.938 194.998c-7.059 10.457-18.852 17.251-32.235 17.287h-797.199c-16.115 0.049-29.166 13.1-29.215 29.21v597.273c0 16.135 13.080 29.215 29.215 29.215h1289.616c16.135 0 29.215-13.080 29.215-29.215v0zM338.049 438.276c-0.026 0-0.056 0-0.086 0-73.897 0-133.802 59.905-133.802 133.802s59.905 133.802 133.802 133.802c73.897 0 133.802-59.905 133.802-133.802v0c-0.098-73.827-59.895-133.654-133.701-133.802h-0.014zM338.049 610.628c-21.291 0-38.55-17.26-38.55-38.55s17.26-38.55 38.55-38.55c21.291 0 38.55 17.26 38.55 38.55v0c-0.098 21.234-17.31 38.415-38.545 38.464h-0.005zM755.705 438.276c-73.897 0-133.802 59.905-133.802 133.802s59.905 133.802 133.802 133.802c73.897 0 133.802-59.905 133.802-133.802v0c-0.098-73.857-59.945-133.704-133.792-133.802h-0.009zM755.705 610.628c-21.291 0-38.55-17.26-38.55-38.55s17.26-38.55 38.55-38.55c21.291 0 38.55 17.26 38.55 38.55v0c-0.098 21.234-17.31 38.415-38.545 38.464h-0.005zM1173.792 438.276c-73.897 0-133.802 59.905-133.802 133.802s59.905 133.802 133.802 133.802c73.897 0 133.802-59.905 133.802-133.802v0c-0.098-73.857-59.945-133.704-133.792-133.802h-0.009zM1173.792 610.628c-21.291 0-38.55-17.26-38.55-38.55s17.26-38.55 38.55-38.55c21.291 0 38.55 17.26 38.55 38.55v0c-0.049 21.253-17.29 38.464-38.55 38.464 0 0 0 0 0 0v0z" />
<glyph unicode="&#xe928;" horiz-adv-x="973" d="M919.45 216.405c33.143-18.773 29.73-104.414 18.193-115.746h-848.452c-11.537 11.298-14.95 96.939 18.193 115.746 92.535 52.463 125.201 194.56 136.124 334.507 12.781 138.92 128.739 246.869 269.909 246.869s257.128-107.949 269.83-245.804l0.079-1.064c10.923-139.776 43.588-282.044 136.124-334.507z" />
<glyph unicode="&#xe929;" horiz-adv-x="973" d="M57.037 306.859c-4.959 5.4-12.053 8.773-19.934 8.773-7.049 0-13.468-2.698-18.281-7.118l0.020 0.018q-4.676-4.301-9.694-8.67c-5.421-4.961-8.808-12.068-8.808-19.966 0-14.93 12.103-27.034 27.034-27.034 6.666 0 12.769 2.413 17.482 6.413l-0.039-0.032q5.427 4.779 10.513 9.455c5.409 4.954 8.788 12.049 8.788 19.933 0 7.035-2.691 13.442-7.1 18.248l0.018-0.020z" />
<glyph unicode="&#xe92a;" horiz-adv-x="973" d="M75.162 315.699c4.289-2.999 9.613-4.792 15.356-4.792 9.158 0 17.251 4.559 22.133 11.532l0.058 0.087c44.373 63.932 51.2 127.113 60.041 242.347 0.026 0.443 0.041 0.961 0.041 1.482 0 14.93-12.103 27.034-27.034 27.034-13.998 0-25.511-10.639-26.894-24.271l-0.009-0.114c-8.363-108.681-13.995-163.26-50.517-215.791-2.989-4.284-4.776-9.6-4.776-15.333 0-9.151 4.553-17.239 11.516-22.122l0.087-0.058z" />
<glyph unicode="&#xe92b;" horiz-adv-x="973" d="M958.191 205.824c-0.341 0.683-0.717 1.331-1.092 1.98-5.558 10.395-13.548 18.844-23.239 24.792l-0.279 0.159c-68.881 39.868-110.558 148.343-123.904 322.458-10.35 128.257-99.731 233.101-218.965 266.351l-2.117 0.504c8.883 13.648 14.165 30.347 14.165 48.28 0 49.353-40.008 89.361-89.361 89.361s-89.361-40.008-89.361-89.361c0-17.933 5.283-34.633 14.376-48.627l-0.211 0.347c-121.351-33.754-210.732-138.598-221.012-265.788l-0.069-1.066c-13.346-174.080-55.023-282.556-123.904-322.458-22.172-16.197-36.65-41.784-37.543-70.791l-0.003-0.138c-2.97-22.63-3.891-70.11 13.926-87.962 4.605-4.631 10.978-7.5 18.021-7.509h272.352c12.48-74.387 76.391-130.367 153.378-130.367s140.899 55.98 153.251 129.455l0.127 0.912h272.316c0 0 0 0 0 0 7.057 0 13.443 2.871 18.055 7.508l0.001 0.001c17.783 17.852 16.896 65.365 13.892 87.996-1.82 16.309-6.349 31.183-13.145 44.722l0.345-0.759zM513.399 908.8c0.030 0 0.066 0 0.102 0 21.227 0 38.434-17.208 38.434-38.434s-17.208-38.434-38.434-38.434c-21.227 0-38.434 17.207-38.434 38.434v0c0 0 0 0 0 0 0 21.191 17.149 38.376 38.326 38.434h0.006zM513.399-12.8c-48.664 0.121-89.517 33.418-101.148 78.462l-0.159 0.727h202.615c-11.779-45.778-52.639-79.081-101.295-79.189h-0.012zM920.713 117.589h-814.626c-0.613 5.122-0.963 11.053-0.963 17.067s0.35 11.945 1.030 17.776l-0.067-0.709c2.458 22.869 8.977 34.441 12.8 36.659 85.538 49.527 134.349 168.209 149.265 362.871 8.975 128.493 115.412 229.329 245.402 229.329s236.427-100.837 245.358-228.555l0.043-0.774c4.336-83.262 20.617-161.353 47.179-234.513l-1.782 5.615h-95.949c-14.138 0-25.6-11.462-25.6-25.6s11.462-25.6 25.6-25.6v0h120.388c11.245-19.465 24.081-36.268 38.779-51.238l-0.037 0.038h-254.498c-14.138 0-25.6-11.462-25.6-25.6s11.462-25.6 25.6-25.6v0h304.947c1.276-4.81 2.334-10.614 2.959-16.546l0.044-0.52c0.518-4.706 0.813-10.164 0.813-15.691 0-6.488-0.407-12.882-1.197-19.156l0.077 0.747z" />
<glyph unicode="&#xe92c;" horiz-adv-x="973" d="M519.987 222.14h-16.213c-14.511-0.532-26.073-12.424-26.073-27.017s11.562-26.485 26.025-27.015l0.048-0.001h16.213c14.511 0.532 26.073 12.424 26.073 27.017s-11.562 26.485-26.025 27.015l-0.048 0.001z" />
<glyph unicode="&#xe92d;" horiz-adv-x="973" d="M919.45 216.405c33.143-18.773 29.73-104.414 18.193-115.746h-848.452c-11.537 11.298-14.95 96.939 18.193 115.746 92.535 52.463 125.201 194.56 136.124 334.507 12.781 138.92 128.739 246.869 269.909 246.869s257.128-107.949 269.83-245.804l0.079-1.064c10.923-139.776 43.588-282.044 136.124-334.507z" />
<glyph unicode="&#xe92e;" horiz-adv-x="973" d="M57.037 306.859c-4.959 5.4-12.053 8.773-19.934 8.773-7.049 0-13.468-2.698-18.281-7.118l0.020 0.018q-4.676-4.301-9.694-8.67c-5.421-4.961-8.808-12.068-8.808-19.966 0-14.93 12.103-27.034 27.034-27.034 6.666 0 12.769 2.413 17.482 6.413l-0.039-0.032q5.427 4.779 10.513 9.455c5.409 4.954 8.788 12.049 8.788 19.933 0 7.035-2.691 13.442-7.1 18.248l0.018-0.020z" />
<glyph unicode="&#xe92f;" horiz-adv-x="973" d="M75.162 315.699c4.289-2.999 9.613-4.792 15.356-4.792 9.158 0 17.251 4.559 22.133 11.532l0.058 0.087c44.373 63.932 51.2 127.113 60.041 242.347 0.026 0.443 0.041 0.961 0.041 1.482 0 14.93-12.103 27.034-27.034 27.034-13.998 0-25.511-10.639-26.894-24.271l-0.009-0.114c-8.363-108.681-13.995-163.26-50.517-215.791-2.989-4.284-4.776-9.6-4.776-15.333 0-9.151 4.553-17.239 11.516-22.122l0.087-0.058z" />
<glyph unicode="&#xe930;" horiz-adv-x="973" d="M958.191 205.824c-0.341 0.683-0.717 1.331-1.092 1.98-5.558 10.395-13.548 18.844-23.239 24.792l-0.279 0.159c-68.881 39.868-110.558 148.343-123.904 322.458-10.35 128.257-99.731 233.101-218.965 266.351l-2.117 0.504c8.883 13.648 14.165 30.347 14.165 48.28 0 49.353-40.008 89.361-89.361 89.361s-89.361-40.008-89.361-89.361c0-17.933 5.283-34.633 14.376-48.627l-0.211 0.347c-121.351-33.754-210.732-138.598-221.012-265.788l-0.069-1.066c-13.346-174.080-55.023-282.556-123.904-322.458-22.172-16.197-36.65-41.784-37.543-70.791l-0.003-0.138c-2.97-22.63-3.891-70.11 13.926-87.962 4.605-4.631 10.978-7.5 18.021-7.509h272.352c12.48-74.387 76.391-130.367 153.378-130.367s140.899 55.98 153.251 129.455l0.127 0.912h272.316c0 0 0 0 0 0 7.057 0 13.443 2.871 18.055 7.508l0.001 0.001c17.783 17.852 16.896 65.365 13.892 87.996-1.82 16.309-6.349 31.183-13.145 44.722l0.345-0.759zM513.399 908.8c0.030 0 0.066 0 0.102 0 21.227 0 38.434-17.208 38.434-38.434s-17.208-38.434-38.434-38.434c-21.227 0-38.434 17.207-38.434 38.434v0c0 0 0 0 0 0 0 21.191 17.149 38.376 38.326 38.434h0.006zM513.399-12.8c-48.664 0.121-89.517 33.418-101.148 78.462l-0.159 0.727h202.615c-11.779-45.778-52.639-79.081-101.295-79.189h-0.012zM920.713 117.589h-814.626c-0.613 5.122-0.963 11.053-0.963 17.067s0.35 11.945 1.030 17.776l-0.067-0.709c2.458 22.869 8.977 34.441 12.8 36.659 85.538 49.527 134.349 168.209 149.265 362.871 8.975 128.493 115.412 229.329 245.402 229.329s236.427-100.837 245.358-228.555l0.043-0.774c4.336-83.262 20.617-161.353 47.179-234.513l-1.782 5.615h-95.949c-14.138 0-25.6-11.462-25.6-25.6s11.462-25.6 25.6-25.6v0h120.388c11.245-19.465 24.081-36.268 38.779-51.238l-0.037 0.038h-254.498c-14.138 0-25.6-11.462-25.6-25.6s11.462-25.6 25.6-25.6v0h304.947c1.276-4.81 2.334-10.614 2.959-16.546l0.044-0.52c0.518-4.706 0.813-10.164 0.813-15.691 0-6.488-0.407-12.882-1.197-19.156l0.077 0.747z" />
<glyph unicode="&#xe931;" horiz-adv-x="973" d="M519.987 222.14h-16.213c-14.511-0.532-26.073-12.424-26.073-27.017s11.562-26.485 26.025-27.015l0.048-0.001h16.213c14.511 0.532 26.073 12.424 26.073 27.017s-11.562 26.485-26.025 27.015l-0.048 0.001z" />
<glyph unicode="&#xe932;" glyph-name="password" horiz-adv-x="641" d="M289.995-63.97c-18.836 3.862-37.909 6.744-56.448 11.884-125.182 35.53-217.835 142.415-231.85 272.844l-0.122 1.405c-1.099 10.903-1.664 21.926-1.664 32.918q-0.178 154.044 0 308.088v13.191c0.771 0.017 1.679 0.027 2.59 0.027 34.603 0 65.867-14.3 88.203-37.312l0.029-0.030c23.187-22.809 37.554-54.522 37.554-89.59 0-0.182 0-0.365-0.001-0.547v0.028h382.927c10.161 79.057 64.737 133.069 128.969 126.741v-11.527c0-104.37 2.169-208.769-0.564-313.050 0.002-0.368 0.002-0.804 0.002-1.24 0-125.586-74.474-233.778-181.668-282.82l-1.94-0.795c-29.227-14.742-63.293-24.817-99.3-28.225l-1.148-0.088c-2.116-0.441-3.974-1.046-5.737-1.824l0.181 0.072zM288.005 146.7h0.267c0-17.321-0.594-34.671 0.178-51.932 0.58-16.937 14.45-30.446 31.475-30.446 13.896 0 25.69 9 29.87 21.49l0.065 0.222c1.327 4.684 2.090 10.063 2.090 15.62 0 0.389-0.004 0.777-0.011 1.164l0.001-0.058c0.208 29.977 0.267 59.954 0 89.931-0.043 0.441-0.068 0.953-0.068 1.47 0 5.566 2.835 10.471 7.14 13.348l0.058 0.037c14.981 10.716 24.63 28.056 24.63 47.651 0 0.095 0 0.19-0.001 0.286v-0.015c0.003 0.221 0.004 0.481 0.004 0.742 0 35.195-28.532 63.727-63.727 63.727-25.274 0-47.112-14.714-57.416-36.042l-0.166-0.381c-3.922-7.849-6.217-17.098-6.217-26.884 0-20.428 10.004-38.52 25.379-49.643l0.179-0.123c3.923-2.563 6.479-6.934 6.479-11.902 0-0.464-0.022-0.924-0.066-1.377l0.004 0.058c-0.267-15.627-0.030-31.225-0.030-46.941zM96.081 578.38l-63.578 28.699c-1.575 60.34-4.516 122.998 23.768 181.228 43.395 101.637 142.493 171.575 257.926 171.575 1.477 0 2.952-0.011 4.424-0.034l-0.222 0.003c1.452 0.027 3.165 0.042 4.882 0.042 139.274 0 255.212-99.91 280.054-231.968l0.277-1.769c2.708-14.47 4.394-31.259 4.661-48.392l0.003-0.243c0.772-23.976 0.178-47.981 0.178-70.352l-64.024-28.848c0 2.109 0 5.496 0 8.913-0.624 36.988 0.802 74.274-2.258 110.906-13.228 111.948-107.563 197.955-221.987 197.955-111.451 0-203.845-81.597-220.699-188.311l-0.165-1.266c-1.893-12.151-2.974-26.166-2.974-40.433 0-0.492 0.001-0.983 0.004-1.474v0.076c-0.594-28.878-0.267-57.874-0.267-86.306z" />
<glyph unicode="&#xe933;" glyph-name="settings" horiz-adv-x="1032" d="M988.594 578.544h-80.506c-6.768 19.611-14.109 36.175-22.645 51.998l0.907-1.84 56.722 56.661c8.032 7.688 13.024 18.495 13.024 30.468s-4.992 22.78-13.009 30.454l-126.464 126.464c-7.688 8.032-18.495 13.024-30.468 13.024s-22.78-4.992-30.454-13.009l-0.015-0.015-58.769-58.829c-15.174 6.503-32.696 13.066-47.81 19.63v82.794c-0.034 24.075-19.525 43.587-43.588 43.655h-178.722c-24.096-0.034-43.621-19.559-43.655-43.652v-78.281c-17.281-6.563-32.636-13.066-47.81-19.63l-58.829 58.769c-7.685 8.013-18.48 12.993-30.438 12.993s-22.753-4.98-30.424-12.978l-0.014-0.015-126.449-126.449c-8.032-7.688-13.024-18.495-13.024-30.468s4.992-22.78 13.009-30.454l56.676-56.676c-6.767-13.111-14.069-29.65-20.499-46.618l-1.178-3.541h-80.506c-24.075-0.034-43.587-19.525-43.655-43.588v-178.722c0.034-24.096 19.559-43.621 43.652-43.655h74.006c7.687-21.554 15.002-38.809 23.132-55.595l-1.454 3.329-54.193-54.193c-8.013-7.685-12.993-18.48-12.993-30.438s4.98-22.753 12.978-30.424l0.015-0.014 126.449-126.449c7.688-8.032 18.495-13.024 30.468-13.024s22.78 4.992 30.454 13.009l52.281 52.281c15.575-9.589 33.535-17.776 52.516-23.64l1.677-0.446v-71.896c0.068-24.049 19.546-43.527 43.588-43.595h178.722c0.559-0.028 1.213-0.044 1.871-0.044 21.665 0 39.268 17.388 39.616 38.97v71.929c17.281 6.503 36.851 15.355 54.193 24.086l52.266-52.266c7.685-8.013 18.48-12.993 30.438-12.993s22.753 4.98 30.424 12.978l0.014 0.015 126.449 126.449c8.032 7.688 13.024 18.495 13.024 30.468s-4.992 22.78-13.009 30.454l-54.208 54.208c6.691 13.48 14.006 30.735 20.448 48.409l1.229 3.856h84.3c24.070 0.068 43.561 19.58 43.595 43.652v178.718c0 0.018 0 0.040 0 0.061 0 24.004-19.374 43.483-43.338 43.654h-0.016zM939.038 401.936h-65.332c-0.073 0-0.159 0.001-0.245 0.001-19.905 0-36.587-13.797-41.005-32.35l-0.058-0.287c-8.556-34.672-21.293-65.173-37.945-93.067l0.853 1.542c-3.844-6.267-6.12-13.855-6.12-21.975 0-11.854 4.852-22.575 12.678-30.285l0.005-0.005 45.702-45.763-65.332-65.272-43.655 43.595c-7.338 8.27-17.994 13.456-29.861 13.456-8.365 0-16.129-2.577-22.54-6.98l0.135 0.088c-26.964-16.045-58.119-29.435-91.047-38.559l-2.706-0.64c-18.849-4.307-32.7-20.93-32.7-40.788 0-0.204 0.001-0.407 0.004-0.609v0.031-63.225h-95.861v63.526c0 0.069 0.001 0.15 0.001 0.231 0 19.927-13.828 36.624-32.411 41.019l-0.286 0.057c-35.56 9.211-66.771 22.645-95.28 40.067l1.527-0.867c-6.279 3.917-13.903 6.24-22.069 6.24-11.836 0-22.532-4.878-30.188-12.734l-43.604-43.604-65.332 65.272 45.702 45.763c7.764 7.75 12.567 18.465 12.567 30.301 0 8.109-2.255 15.692-6.171 22.156l0.107-0.191c-16.872 26.235-29.725 56.863-36.765 89.649l-0.327 1.816c-4.306 18.815-20.902 32.64-40.727 32.64-0.204 0-0.408-0.001-0.611-0.004h-65.301v93.813h69.788c0.073 0 0.159-0.001 0.245-0.001 19.905 0 36.587 13.797 41.005 32.35l0.058 0.287c7.833 33.085 20.624 62.231 37.732 88.289l-0.641-1.039c3.844 6.267 6.12 13.855 6.12 21.975 0 11.854-4.852 22.575-12.678 30.285l-50.163 50.163 65.332 65.332 50.158-50.158c7.75-7.764 18.465-12.567 30.301-12.567 8.109 0 15.692 2.255 22.156 6.171l-0.191-0.107c25.122 14.669 54.189 26.613 84.938 34.313l2.313 0.49c18.845 4.283 32.7 20.894 32.7 40.74 0 0.199-0.001 0.398-0.004 0.597v-0.030 71.835h93.753v-74.184c0-0.073-0.001-0.159-0.001-0.245 0-19.905 13.797-36.587 32.35-41.005l0.287-0.058c33.005-7.69 62.126-19.677 88.635-35.574l-1.385 0.77c6.276-3.868 13.881-6.159 22.022-6.159 11.836 0 22.54 4.844 30.239 12.657l52.271 52.271 65.332-65.332-50.158-50.158c-8.27-7.338-13.456-17.994-13.456-29.861 0-8.365 2.577-16.129 6.98-22.54l-0.088 0.135c14.847-25.079 27.483-54.051 36.414-84.604l0.678-2.707c4.33-18.819 20.939-32.639 40.775-32.639 0.187 0 0.374 0.001 0.56 0.004h69.7zM511.94 685.364c-0.018 0-0.039 0-0.060 0-131.192 0-237.544-106.352-237.544-237.544s106.352-237.544 237.544-237.544c131.192 0 237.544 106.352 237.544 237.544v0c-0.375 131.020-106.469 237.135-237.445 237.544h-0.039zM511.94 295.237c-84.269 0-152.582 68.313-152.582 152.582s68.313 152.582 152.582 152.582c84.269 0 152.582-68.313 152.582-152.582v0c-0.307-84.133-68.445-152.25-152.556-152.522h-0.026z" />
<glyph unicode="&#xe934;" glyph-name="share" horiz-adv-x="1112" d="M928.427 593.237c0.028 0 0.060 0 0.093 0 101.326 0 183.467 82.141 183.467 183.467s-82.141 183.467-183.467 183.467c-101.326 0-183.467-82.141-183.467-183.467 0-30.698 7.54-59.636 20.868-85.062l-0.481 1.008-310.955-213.333c-47.308 57.821-118.666 94.434-198.576 94.434-141.385 0-256-114.615-256-256s114.615-256 256-256c88.944 0 167.293 45.359 213.178 114.208l0.587 0.937 267.691-97.536c0.942-79.397 65.525-143.399 145.057-143.399 80.118 0 145.067 64.949 145.067 145.067s-64.949 145.067-145.067 145.067c-58.161 0-108.327-34.227-131.456-83.637l-0.374-0.89-252.928 92.16c8.996 25.048 14.196 53.95 14.196 84.065 0 30.838-5.453 60.403-15.447 87.783l0.568-1.779 325.376 222.805c29.269-20.87 65.763-33.368 105.176-33.368 0.314 0 0.628 0.001 0.942 0.002h-0.048z" />
<glyph unicode="&#xe935;" glyph-name="star" horiz-adv-x="1077" d="M1076.689 492.527l-64.991 200.003-410.606-177.952 42.322 445.5h-210.293l42.476-445.5-410.606 177.952-64.991-200.003 436.834-97.255-296.097-335.556 170.215-123.793 227.47 385.383 227.624-385.306 170.215 123.793-296.252 335.479z" />
<glyph unicode="&#xe936;" glyph-name="user1" d="M832.015 917.343h64.015v-64.015c-0.019-0.334-0.029-0.724-0.029-1.118 0-11.796 9.562-21.358 21.358-21.358s21.358 9.562 21.358 21.358c0 0.393-0.011 0.784-0.032 1.172l0.002-0.054v85.314c0 11.796-9.562 21.358-21.358 21.358h-85.314c-0.334 0.019-0.724 0.029-1.118 0.029-11.796 0-21.358-9.562-21.358-21.358s9.562-21.358 21.358-21.358c0.393 0 0.784 0.011 1.172 0.032l-0.054-0.002zM106.672 832.029c0.017 0 0.038 0 0.059 0 11.763 0 21.299 9.536 21.299 21.299 0 0.021 0 0.041 0 0.062v-0.003 64.015h64.015c0.334-0.019 0.724-0.029 1.118-0.029 11.796 0 21.358 9.562 21.358 21.358s-9.562 21.358-21.358 21.358c-0.393 0-0.784-0.011-1.172-0.032l0.054 0.002h-85.314c-11.796 0-21.358-9.562-21.358-21.358v0-85.314c0-0.017 0-0.038 0-0.059 0-11.763 9.536-21.299 21.299-21.299 0 0 0 0 0 0v0zM832.015 234.657h85.314c0 0 0 0 0 0 11.775 0 21.324 9.529 21.358 21.296v85.317c0.019 0.334 0.029 0.724 0.029 1.118 0 11.796-9.562 21.358-21.358 21.358s-21.358-9.562-21.358-21.358c0-0.393 0.011-0.784 0.032-1.172l-0.002 0.054v-64.015h-64.015c-0.334 0.019-0.724 0.029-1.118 0.029-11.796 0-21.358-9.562-21.358-21.358s9.562-21.358 21.358-21.358c0.393 0 0.784 0.011 1.172 0.032l-0.054-0.002zM842.313 190.069l-163.43 40.96-13.926 55.647c42.957 43.030 72.649 99.315 82.411 162.19l0.211 1.65c24.551 7.145 42.801 27.888 46.19 53.329l0.036 0.329 10.65 85.372c0.314 2.377 0.493 5.125 0.493 7.916 0 27.215-17.030 50.453-41.015 59.638l-0.437 0.147 3.92 80.34 15.974 15.974c16.73 17.599 27.021 41.456 27.021 67.716 0 25.073-9.382 47.956-24.826 65.328l0.087-0.1c-32.928 45.294-85.739 74.404-145.348 74.404-5.707 0-11.352-0.267-16.922-0.789l0.713 0.054c-3.649 0.169-7.927 0.266-12.228 0.266-55.416 0-107.092-16.012-150.654-43.662l1.148 0.681c-181.804-3.803-206.497-88.181-206.497-170.628 0-19.134 4.623-62.259 7.724-88.24-26.124-8.461-44.683-32.576-44.683-61.026 0-2.828 0.183-5.612 0.539-8.343l-0.034 0.322 10.65-85.314c3.654-27.532 24.262-49.367 50.843-54.815l0.415-0.071c9.993-62.191 38.063-116.552 78.573-158.919l-0.105 0.111-14.863-59.509-163.43-40.96c-105.017-26.933-181.395-120.742-181.395-232.389 0-0.134 0-0.267 0-0.401v0.020c0-0.028 0-0.062 0-0.096 0-5.856 2.37-11.159 6.203-15.001v0c3.877-3.834 9.21-6.202 15.097-6.203h981.343c11.796 0 21.358 9.562 21.358 21.358v0c0 0.092 0 0.202 0 0.311 0 111.774-76.587 205.659-180.147 232.042l-1.657 0.358zM43.769-21.226c9.322 82.762 68.744 149.425 146.853 169.396l1.364 0.296 175.894 43.944c7.648 1.989 13.546 7.906 15.474 15.416l0.032 0.148 20.89 83.675c0.444 1.619 0.699 3.479 0.699 5.397 0 6.020-2.511 11.453-6.543 15.309l-0.008 0.007c-42.303 40.635-70.335 95.848-75.996 157.535l-0.073 0.98c-0.906 11.010-10.066 19.602-21.231 19.602-0.003 0-0.006 0-0.010 0h-6.904c-10.852 0.034-19.802 8.133-21.171 18.617l-0.012 0.108-10.65 85.255c-0.108 0.808-0.17 1.743-0.17 2.692 0 11.794 9.559 21.355 21.352 21.358h4.447c0.036 0 0.078 0 0.12 0 11.731 0 21.241 9.51 21.241 21.241 0 0.97-0.065 1.924-0.191 2.86l0.012-0.109c-2.75 21.884-9.889 83.149-9.889 104.038 0 66.589 13.107 126.449 170.862 127.971 4.574 0.038 8.794 1.524 12.232 4.021l-0.061-0.042c36.302 24.47 81.024 39.059 129.155 39.059 4.688 0 9.345-0.138 13.964-0.411l-0.637 0.030c4.416 0.495 9.536 0.778 14.722 0.778 45.25 0 85.477-21.509 111.013-54.861l0.246-0.335c28.321-43.242 16.091-65.653 2.75-79.872l-21.358-21.358c-3.616-3.621-5.935-8.538-6.201-13.994l-0.002-0.049-5.208-106.789c-0.017-0.315-0.026-0.684-0.026-1.055 0-11.67 9.385-21.147 21.019-21.297h0.014c6.368-0.076 12.060-2.904 15.953-7.348l0.021-0.025c3.234-3.661 5.208-8.5 5.208-13.8 0-0.952-0.064-1.89-0.187-2.808l0.012 0.107-10.65-85.314c-1.621-10.659-10.721-18.732-21.707-18.732-0.598 0-1.19 0.024-1.776 0.071l0.077-0.005c-11.196-0.029-20.365-8.669-21.236-19.645l-0.005-0.075c-5.863-64.342-35.441-120.836-79.801-161.447l-0.188-0.169c-4.348-3.916-7.070-9.565-7.070-15.849 0-1.832 0.231-3.609 0.666-5.305l-0.032 0.148 20.070-80.165c1.96-7.658 7.859-13.576 15.357-15.532l0.149-0.033 175.894-43.886c79.54-20.307 138.98-87.109 148.078-169.096l0.080-0.888zM106.672 234.657h85.314c0.334-0.019 0.724-0.029 1.118-0.029 11.796 0 21.358 9.562 21.358 21.358s-9.562 21.358-21.358 21.358c-0.393 0-0.784-0.011-1.172-0.032l0.054 0.002h-64.015v64.015c0.019 0.334 0.029 0.724 0.029 1.118 0 11.796-9.562 21.358-21.358 21.358s-21.358-9.562-21.358-21.358c0-0.393 0.011-0.784 0.032-1.172l-0.002 0.054v-85.314c0-11.796 9.562-21.358 21.358-21.358v0z" />
<glyph unicode="&#xe937;" glyph-name="user2" d="M512 960c-282.77 0-512-229.23-512-512s229.23-512 512-512c282.77 0 512 229.23 512 512v0c-0.327 282.638-229.362 511.672-511.968 512h-0.032zM512 900.704c0.053 0 0.115 0 0.177 0 249.951 0 452.576-202.625 452.576-452.576 0-79.261-20.375-153.762-56.173-218.553l1.18 2.329c-94.617 115.938-237.514 189.374-397.563 189.374-160.179 0-303.179-73.556-397.063-188.733l-0.734-0.929c-34.694 62.517-55.115 137.098-55.115 216.448 0 249.951 202.625 452.576 452.576 452.576 0.049 0 0.098 0 0.147 0h-0.008zM512-4.704c-56.313 42.024-92.384 108.473-92.384 183.346 0 125.992 102.136 228.128 228.128 228.128 125.874 0 227.938-101.946 228.128-227.776v-0.018c-83.295-111.947-215.203-183.688-363.869-183.712h-0.003zM512.032 457.12c112.578 0 203.84 91.262 203.84 203.84s-91.262 203.84-203.84 203.84c-112.578 0-203.84-91.262-203.84-203.84v0c0.128-112.527 91.314-203.713 203.828-203.84h0.012zM512.032 805.472c79.829 0 144.544-64.715 144.544-144.544s-64.715-144.544-144.544-144.544c-79.829 0-144.544 64.715-144.544 144.544v0c0.091 79.793 64.751 144.453 144.535 144.544h0.009z" />
<glyph unicode="&#xe938;" glyph-name="zoomin" d="M512.647 562.17c-13.228 0-23.952 10.724-23.952 23.952v0 349.926c0 13.228 10.724 23.952 23.952 23.952s23.952-10.724 23.952-23.952v0-349.926c0-13.228-10.724-23.952-23.952-23.952v0zM512.647-64.059c-13.228 0-23.952 10.724-23.952 23.952v0 349.926c0 13.228 10.724 23.952 23.952 23.952s23.952-10.724 23.952-23.952v0-349.926c0-13.228-10.724-23.952-23.952-23.952v0zM1000.048 423.224h-349.926c-12.708 0.65-22.765 11.112-22.765 23.923s10.058 23.273 22.707 23.92l0.058 0.002h349.926c12.708-0.65 22.765-11.112 22.765-23.923s-10.058-23.273-22.707-23.92l-0.058-0.002zM373.878 423.224h-349.69c-12.708 0.65-22.765 11.112-22.765 23.923s10.058 23.273 22.707 23.92l0.058 0.002h349.926c0.354 0.019 0.769 0.029 1.187 0.029 13.228 0 23.952-10.724 23.952-23.952s-10.724-23.952-23.952-23.952c-0.417 0-0.832 0.011-1.245 0.032l0.058-0.002zM592.566 448c0-44.496-36.071-80.566-80.566-80.566s-80.566 36.071-80.566 80.566c0 44.496 36.071 80.566 80.566 80.566s80.566-36.071 80.566-80.566zM512 38.223c-226.313 0-409.777 183.463-409.777 409.777s183.463 409.777 409.777 409.777c226.313 0 409.777-183.463 409.777-409.777v0c-0.268-226.206-183.571-409.509-409.751-409.777h-0.026zM512 809.872c-199.856 0-361.872-162.016-361.872-361.872s162.016-361.872 361.872-361.872c199.856 0 361.872 162.016 361.872 361.872v0c-0.234 199.762-162.11 361.638-361.85 361.872h-0.022zM512.118 201.24c-136.257 0.034-246.702 110.499-246.702 246.76 0 136.282 110.478 246.76 246.76 246.76s246.76-110.478 246.76-246.76v0c-0.234-136.208-110.606-246.56-246.8-246.76h-0.019zM512.118 646.915c-109.858 0-198.915-89.057-198.915-198.915s89.057-198.915 198.915-198.915c109.858 0 198.915 89.057 198.915 198.915v0c-0.101 109.829-89.091 198.84-198.902 198.974h-0.013z" />
</font>
</defs>
</svg>
