<svg xmlns="http://www.w3.org/2000/svg" width="229.246" height="25.968" viewBox="0 0 229.246 25.968">
  <g id="Group_25" data-name="Group 25" transform="translate(-164.588 -280.397)">
    <g id="Group_3" data-name="Group 3" transform="translate(164.588 282.295)">
      <path id="Path_12" data-name="Path 12" d="M393.834,305.138H164.588V283.045H393.834v22.092Z" transform="translate(-164.588 -283.045)" fill="#5a9fd6"/>
    </g>
    <g id="Group_4" data-name="Group 4" transform="translate(164.588 282.295)">
      <path id="Path_13" data-name="Path 13" d="M393.834,305.138H164.588V283.045H393.834v22.092Z" transform="translate(-164.588 -283.045)" fill="#215ea8"/>
    </g>
    <g id="Group_5" data-name="Group 5" transform="translate(181.753 280.861)">
      <path id="Path_14" data-name="Path 14" d="M188.534,281.044H196.1q4.318,0,5.878,1.368c1.037.912,1.562,2.621,1.562,5.129v-.5q0,3.813-1.7,5.152a6.631,6.631,0,0,1-3.171,1.1,7.446,7.446,0,0,1,3.421,1.161q1.768,1.324,1.766,5.012v-.511c0,2.8-.56,4.7-1.679,5.667s-3.283,1.457-6.5,1.457h-7.147V281.044Zm5.117,10.406h1.036a4.4,4.4,0,0,0,3.026-.754,4.357,4.357,0,0,0,.746-3.01v.495a3.654,3.654,0,0,0-.735-2.662,4,4,0,0,0-2.755-.709h-1.319v6.64Zm0,10.87h1.614a3.643,3.643,0,0,0,2.78-.8,5.181,5.181,0,0,0,.69-3.206v.513c0-1.487-.231-2.463-.7-2.923s-1.468-.692-3.011-.692h-1.373v7.109Z" transform="translate(-188.534 -281.044)" fill="#fff"/>
    </g>
    <g id="Group_6" data-name="Group 6" transform="translate(181.668 280.778)">
      <path id="Path_15" data-name="Path 15" d="M195.647,306.13h-7.231v-25.2h7.648c2.887,0,4.882.466,5.932,1.388.984.867,1.517,2.446,1.585,4.694h.006l-.006.5c-.072,2.289-.652,3.878-1.72,4.718a6.039,6.039,0,0,1-2.687,1.033,6.944,6.944,0,0,1,2.932,1.094c1.11.831,1.714,2.366,1.792,4.568h.009l-.006.511c-.067,2.545-.64,4.3-1.7,5.218C201.074,305.635,198.87,306.13,195.647,306.13Zm-7.064-.168h7.064c3.18,0,5.35-.485,6.444-1.439,1.057-.916,1.611-2.707,1.648-5.332-.037-2.284-.619-3.869-1.73-4.7a7.435,7.435,0,0,0-3.381-1.149v-.166a6.557,6.557,0,0,0,3.131-1.079c1.067-.842,1.624-2.471,1.659-4.84-.032-2.331-.55-3.949-1.532-4.815-1.019-.891-2.976-1.346-5.821-1.346h-7.481Zm6.648-3.592h-1.7V295.1h1.457c1.576,0,2.579.231,3.07.717a3.684,3.684,0,0,1,.717,2.467h.01l-.01.513a4.6,4.6,0,0,1-.7,2.75A3.733,3.733,0,0,1,195.231,302.371ZM193.7,302.2h1.532a3.587,3.587,0,0,0,2.716-.775,4.793,4.793,0,0,0,.672-2.882,3.921,3.921,0,0,0-.678-2.621c-.45-.443-1.443-.667-2.951-.667H193.7Zm.954-10.7h-1.12v-6.807h1.4a4.084,4.084,0,0,1,2.814.733,3.239,3.239,0,0,1,.749,2.226h.012l-.011.495a3.852,3.852,0,0,1-.761,2.573A4.478,4.478,0,0,1,194.654,291.5Zm-.954-.169h.954a4.346,4.346,0,0,0,2.969-.73,3.947,3.947,0,0,0,.717-2.683,3.357,3.357,0,0,0-.707-2.37,3.938,3.938,0,0,0-2.7-.69H193.7Z" transform="translate(-188.416 -280.928)" fill="#0054a5"/>
    </g>
    <g id="Group_7" data-name="Group 7" transform="translate(200.273 280.861)">
      <path id="Path_16" data-name="Path 16" d="M220.05,281.044h6l5.68,25.034h-4.946l-.991-5.4h-5.451l-1.021,5.4h-4.952l5.679-25.034Zm.976,15.9h4.1l-2.031-11.219h0l-2.072,11.219Z" transform="translate(-214.371 -281.044)" fill="#fff"/>
    </g>
    <g id="Group_8" data-name="Group 8" transform="translate(200.167 280.778)">
      <path id="Path_17" data-name="Path 17" d="M231.8,306.13h-5.123l-.993-5.406h-5.309l-1.022,5.406h-5.128l5.718-25.2h6.137l.014.066Zm-4.983-.168h4.773L225.944,281.1h-5.869l-5.641,24.867h4.778l1.022-5.4h5.587ZM225.187,297h-4.3l.019-.1,2.068-11.19-.018-.094h.2l-.014.094Zm-4.1-.169h3.9l-1.933-10.656Z" transform="translate(-214.223 -280.928)" fill="#0054a5"/>
    </g>
    <g id="Group_9" data-name="Group 9" transform="translate(221.437 280.861)">
      <path id="Path_18" data-name="Path 18" d="M248.1,306.078h-4.2V281.044h7.535l4.341,21.139V281.044h4.2v25.034h-7.507L248.1,284.772v21.306Z" transform="translate(-243.897 -281.044)" fill="#fff"/>
    </g>
    <g id="Group_10" data-name="Group 10" transform="translate(221.355 280.778)">
      <path id="Path_19" data-name="Path 19" d="M260.021,306.13h-7.66l-4.214-20.565V306.13h-4.365v-25.2h7.683l.016.067,4.175,20.327V280.928h4.365Zm-7.522-.168h7.354V281.1h-4.031V302.15l-.165.014L251.331,281.1H243.95v24.867h4.029V284.739l.166-.014Z" transform="translate(-243.782 -280.928)" fill="#0054a5"/>
    </g>
    <g id="Group_11" data-name="Group 11" transform="translate(241.957 280.483)">
      <path id="Path_20" data-name="Path 20" d="M280.284,306.314c-2.888,0-4.9-.743-6.031-2.249s-1.71-4.145-1.729-7.939V290.19c.019-3.416.664-5.885,1.957-7.4s3.385-2.273,6.3-2.273c2.534,0,4.424.615,5.652,1.846s1.8,3.073,1.723,5.529v.744h-5.083v-.744a4.48,4.48,0,0,0-.622-2.71,2.6,2.6,0,0,0-4.175.331,10.6,10.6,0,0,0-.634,4.4v5.924a15.65,15.65,0,0,0,.595,5.411,2.417,2.417,0,0,0,2.45,1.3,11.224,11.224,0,0,0,2.35-.391V296.4h-2.368v-3.727h7.487v12.649a34.871,34.871,0,0,1-7.89.991Z" transform="translate(-272.524 -280.517)" fill="#fff"/>
    </g>
    <g id="Group_12" data-name="Group 12" transform="translate(241.873 280.397)">
      <path id="Path_21" data-name="Path 21" d="M280.251,306.365h-.017c-2.9,0-4.945-.771-6.084-2.284-1.138-1.5-1.726-4.183-1.744-7.989v-5.937c.018-3.433.683-5.94,1.976-7.453,1.3-1.53,3.444-2.305,6.366-2.305,2.545,0,4.469.634,5.712,1.87s1.829,3.122,1.746,5.593v.824h-5.251v-.826a4.367,4.367,0,0,0-.6-2.66,2.516,2.516,0,0,0-4.035.316,10.594,10.594,0,0,0-.626,4.363V295.8a15.689,15.689,0,0,0,.586,5.377,2.326,2.326,0,0,0,2.374,1.254,10.8,10.8,0,0,0,2.264-.373v-5.606h-2.366V292.56h7.654v12.791l-.063.016a35.246,35.246,0,0,1-7.893,1Zm.5-25.8c-2.869,0-4.968.757-6.238,2.245s-1.918,3.957-1.938,7.347v5.937c.019,3.768.595,6.422,1.712,7.889,1.1,1.468,3.105,2.214,5.949,2.216a35.274,35.274,0,0,0,7.805-.975v-12.5H280.72v3.558h2.368v5.906l-.063.014a11.38,11.38,0,0,1-2.369.4,2.5,2.5,0,0,1-2.524-1.357c-.409-.891-.6-2.672-.6-5.443v-5.924a10.765,10.765,0,0,1,.642-4.438,2.326,2.326,0,0,1,2.268-1.275,2.357,2.357,0,0,1,2.051.934,4.514,4.514,0,0,1,.637,2.76v.659h4.915v-.659c.079-2.429-.49-4.266-1.694-5.472S283.249,280.564,280.749,280.564Z" transform="translate(-272.407 -280.397)" fill="#0054a5"/>
    </g>
    <g id="Group_13" data-name="Group 13" transform="translate(262.333 280.861)">
      <path id="Path_22" data-name="Path 22" d="M300.95,306.078V281.044h5.121v21.313h6.5v3.721Z" transform="translate(-300.95 -281.044)" fill="#fff"/>
    </g>
    <g id="Group_14" data-name="Group 14" transform="translate(262.247 280.778)">
      <path id="Path_23" data-name="Path 23" d="M312.624,306.13H300.83v-25.2h5.288v21.313h6.506ZM301,305.962h11.46v-3.554H305.95V281.1H301Z" transform="translate(-300.83 -280.928)" fill="#0054a5"/>
    </g>
    <g id="Group_15" data-name="Group 15" transform="translate(276.641 280.861)">
      <path id="Path_24" data-name="Path 24" d="M326.585,281.044h6.008l5.68,25.034h-4.952l-.988-5.4H326.89l-1.024,5.4h-4.955l5.674-25.034Zm.981,15.9h4.1l-2.03-11.219h0l-2.07,11.219Z" transform="translate(-320.911 -281.044)" fill="#fff"/>
    </g>
    <g id="Group_16" data-name="Group 16" transform="translate(276.537 280.778)">
      <path id="Path_25" data-name="Path 25" d="M338.339,306.13H333.21l-.988-5.406h-5.3l-1.026,5.406h-5.127l.022-.1,5.691-25.1h6.142l.014.066Zm-4.99-.168h4.778L332.486,281.1h-5.875l-5.635,24.867h4.778l1.025-5.4h5.583ZM331.728,297h-4.3l.018-.1,2.071-11.219h.166Zm-4.1-.169h3.9L329.6,286.162Z" transform="translate(-320.766 -280.928)" fill="#0054a5"/>
    </g>
    <g id="Group_17" data-name="Group 17" transform="translate(304.449 280.861)">
      <path id="Path_26" data-name="Path 26" d="M365.105,284.772h-5.4v-3.728h15.9v3.728h-5.389v21.306h-5.113V284.772Z" transform="translate(-359.705 -281.044)" fill="#fff"/>
    </g>
    <g id="Group_18" data-name="Group 18" transform="translate(304.365 280.778)">
      <path id="Path_27" data-name="Path 27" d="M370.271,306.13h-5.283V284.825h-5.4v-3.9h16.071v3.9h-5.388Zm-5.114-.168H370.1V284.657h5.389V281.1H359.755v3.562h5.4Z" transform="translate(-359.588 -280.928)" fill="#0054a5"/>
    </g>
    <g id="Group_19" data-name="Group 19" transform="translate(323.613 280.861)">
      <path id="Path_28" data-name="Path 28" d="M386.44,281.044h7.524c2.687,0,4.6.5,5.754,1.49s1.724,2.665,1.724,5.008c0,2.646-.586,4.432-1.74,5.36a6.693,6.693,0,0,1-2.679,1.079h.286a3.769,3.769,0,0,1,3.164,1.376,5.831,5.831,0,0,1,.949,3.935c-.037.966-.05,1.978-.037,3.03.027,1.087.057,1.912.111,2.472a5.061,5.061,0,0,0,.213,1.272h-5.114a6.107,6.107,0,0,1-.181-1.237c-.032-.562-.049-1.393-.049-2.507v-3.03a3.67,3.67,0,0,0-.709-2.654,3.521,3.521,0,0,0-2.594-.775h-1.5v10.217H386.44V281.044Zm5.119,10.986h1.43a3.586,3.586,0,0,0,2.659-.738,4.549,4.549,0,0,0,.671-2.935,4.114,4.114,0,0,0-.71-2.8,3.563,3.563,0,0,0-2.621-.745h-1.43v7.221Z" transform="translate(-386.44 -281.044)" fill="#fff"/>
    </g>
    <g id="Group_20" data-name="Group 20" transform="translate(323.53 280.778)">
      <path id="Path_29" data-name="Path 29" d="M391.611,306.13h-5.286v-25.2h7.606c2.691,0,4.643.507,5.808,1.513s1.752,2.716,1.752,5.067c0,2.659-.6,4.482-1.773,5.426a5.924,5.924,0,0,1-2.074.94,3.743,3.743,0,0,1,2.86,1.4,5.933,5.933,0,0,1,.968,3.988c-.037.963-.052,1.98-.037,3.03.028,1.225.062,1.962.112,2.465a4.963,4.963,0,0,0,.207,1.247l.038.113H396.5l-.018-.06a6.264,6.264,0,0,1-.182-1.253c-.035-.591-.052-1.459-.052-2.512v-3.03a3.593,3.593,0,0,0-.685-2.594,3.442,3.442,0,0,0-2.532-.75h-1.418Zm-5.12-.168h4.952V295.745h1.586a3.615,3.615,0,0,1,2.654.8,3.741,3.741,0,0,1,.73,2.715v3.03c0,1.049.018,1.917.053,2.5a6.149,6.149,0,0,0,.157,1.157h4.936a5.5,5.5,0,0,1-.179-1.178c-.05-.51-.085-1.249-.112-2.477-.011-1.054,0-2.076.037-3.039a5.751,5.751,0,0,0-.934-3.876,3.7,3.7,0,0,0-3.1-1.346h-.286l-.018-.166a6.645,6.645,0,0,0,2.645-1.059c1.133-.909,1.706-2.694,1.706-5.3,0-2.3-.57-3.965-1.691-4.942s-3.052-1.471-5.7-1.471h-7.44Zm6.466-13.88h-1.514v-7.389h1.514a3.652,3.652,0,0,1,2.684.771,4.165,4.165,0,0,1,.732,2.861,4.565,4.565,0,0,1-.695,2.989A3.652,3.652,0,0,1,392.957,292.082Zm-1.345-.168h1.345a3.518,3.518,0,0,0,2.6-.712,4.506,4.506,0,0,0,.651-2.877,4.072,4.072,0,0,0-.687-2.745,3.5,3.5,0,0,0-2.56-.722h-1.345Z" transform="translate(-386.325 -280.928)" fill="#0054a5"/>
    </g>
    <g id="Group_21" data-name="Group 21" transform="translate(341.621 280.861)">
      <path id="Path_30" data-name="Path 30" d="M417.24,281.044h6l5.683,25.034h-4.954l-.986-5.4h-5.454l-1.024,5.4h-4.946l5.677-25.034Zm.977,15.9h4.108l-2.046-11.219h.014l-2.077,11.219Z" transform="translate(-411.563 -281.044)" fill="#fff"/>
    </g>
    <g id="Group_22" data-name="Group 22" transform="translate(341.514 280.778)">
      <path id="Path_31" data-name="Path 31" d="M428.987,306.13h-5.128l-.981-5.406h-5.314l-1.028,5.406h-5.122l5.719-25.2h6.135l.018.066ZM424,305.962h4.777L423.135,281.1h-5.869l-5.643,24.867H416.4l1.026-5.4h5.6ZM422.383,297h-4.308l.019-.1,2.065-11.169-.022-.115h.2l-.011.115Zm-4.107-.169h3.9l-1.938-10.634Z" transform="translate(-411.414 -280.928)" fill="#0054a5"/>
    </g>
    <g id="Group_23" data-name="Group 23" transform="translate(362.355 280.483)">
      <path id="Path_32" data-name="Path 32" d="M455.72,297.434v.741c.05,2.932-.5,5.021-1.629,6.272s-3.057,1.867-5.77,1.867c-2.867,0-4.893-.682-6.062-2.036-1.186-1.355-1.771-3.68-1.771-6.978v-7.729c0-3.327.585-5.67,1.771-7.023,1.169-1.35,3.195-2.031,6.062-2.031,2.5,0,4.343.636,5.552,1.9a7.306,7.306,0,0,1,1.683,5.268v1.221h-5.082v-.743a5.922,5.922,0,0,0-.51-2.922,1.75,1.75,0,0,0-1.644-.962,2.208,2.208,0,0,0-2.076,1.1A7.645,7.645,0,0,0,445.61,289v7.728a12.1,12.1,0,0,0,.589,4.537,2.138,2.138,0,0,0,2.122,1.28,1.875,1.875,0,0,0,1.768-1.086,6.867,6.867,0,0,0,.54-3.289v-.741Z" transform="translate(-440.489 -280.517)" fill="#fff"/>
    </g>
    <g id="Group_24" data-name="Group 24" transform="translate(362.269 280.397)">
      <path id="Path_33" data-name="Path 33" d="M448.288,306.365c-2.882,0-4.94-.695-6.127-2.064-1.2-1.379-1.792-3.681-1.792-7.035v-7.729c0-3.341.6-5.721,1.792-7.079s3.244-2.061,6.127-2.061c2.5,0,4.388.65,5.611,1.927a7.433,7.433,0,0,1,1.71,5.33v1.3h-5.25v-.826a5.879,5.879,0,0,0-.5-2.882,1.659,1.659,0,0,0-1.571-.92,2.118,2.118,0,0,0-2,1.067,7.608,7.608,0,0,0-.626,3.573V296.7a12.087,12.087,0,0,0,.584,4.5,2.045,2.045,0,0,0,2.046,1.232,1.788,1.788,0,0,0,1.695-1.045,6.828,6.828,0,0,0,.532-3.243v-.829h5.257v.826c.049,2.932-.507,5.063-1.651,6.327S451.008,306.365,448.288,306.365Zm0-25.8c-2.831,0-4.849.678-6,2-1.163,1.323-1.751,3.669-1.751,6.968v7.729c0,3.268.588,5.6,1.751,6.923,1.148,1.333,3.167,2.008,6,2.008,2.674,0,4.6-.621,5.708-1.841s1.657-3.322,1.606-6.215v-.656H450.68v.656a6.976,6.976,0,0,1-.551,3.329,1.973,1.973,0,0,1-1.841,1.133,2.23,2.23,0,0,1-2.2-1.332,12.176,12.176,0,0,1-.6-4.573V288.97a7.784,7.784,0,0,1,.647-3.656,2.3,2.3,0,0,1,2.15-1.149,1.836,1.836,0,0,1,1.718,1.007,6.02,6.02,0,0,1,.52,2.962v.659h4.914v-1.139a7.291,7.291,0,0,0-1.661-5.213C452.585,281.2,450.738,280.564,448.288,280.564Z" transform="translate(-440.369 -280.397)" fill="#0054a5"/>
    </g>
  </g>
</svg>
