<svg xmlns="http://www.w3.org/2000/svg" width="200.894" height="50.608" viewBox="0 0 200.894 50.608">
  <g id="Group_32" data-name="Group 32" transform="translate(70.297 -371.3)">
    <rect id="Rectangle_3" data-name="Rectangle 3" width="150.288" height="50.09" transform="translate(-69.961 371.481)" fill="#fcb415"/>
    <rect id="Rectangle_4" data-name="Rectangle 4" width="50.089" height="50.09" transform="translate(80.328 371.481)"/>
    <path id="Path_1" data-name="Path 1" d="M72.917,402.089a2.98,2.98,0,0,0,1.038-2.47v-3.443H69.14v4.675a1.207,1.207,0,0,1-1.208,1.208,1.174,1.174,0,0,1-1.168-1.208V387.6a1.176,1.176,0,0,1,1.168-1.213A1.209,1.209,0,0,1,69.14,387.6v4.7h4.806V387.43h0c0-2.7-1.766-4.921-6.056-4.927h0c-4.411,0-6.077,2.234-6.077,4.929v13.829a4.7,4.7,0,0,0,4.843,4.7h1.488Z" transform="translate(24.173 2.022)" fill="#fff"/>
    <path id="Path_2" data-name="Path 2" d="M87.734,402.564v-15.2H84.412v-4.478H96.432v4.478H93.1v18.5H91.673Z" transform="translate(28.319 2.092)" fill="#fff"/>
    <path id="Path_3" data-name="Path 3" d="M92.732,403.847l-11.7-9.8-12.116,9.8Z" transform="translate(25.476 4.139)" fill="#fcb415"/>
    <path id="Path_4" data-name="Path 4" d="M92.732,403.847l-11.7-9.8-12.116,9.8Z" transform="translate(25.476 4.139)" fill="none" stroke="#ffc71f" stroke-width="0"/>
    <path id="Path_5" data-name="Path 5" d="M78.983,393.439l1.295-6.623,1.294,6.623H78.983m4.632-10.529h-6.7l-3.9,17.521,7.268-5.868,7.586,6.352-4.249-18" transform="translate(26.227 2.097)" fill="#fff"/>
    <path id="Path_6" data-name="Path 6" d="M96.771,383.973c.245-.008.3-.109.3-.24s-.058-.188-.259-.188h-.321v.428h.277m-.277.261v.728h-.269v-1.683h.546c.31,0,.633.084.633.466a.391.391,0,0,1-.349.392v.009c.24.046.259.146.291.331a2.545,2.545,0,0,0,.1.484h-.337c-.018-.094-.044-.2-.053-.3-.02-.147-.02-.279-.1-.357s-.153-.063-.243-.073h-.221m1.486-.089a1.185,1.185,0,1,0-1.183,1.182,1.18,1.18,0,0,0,1.183-1.182m-2.617,0a1.433,1.433,0,1,1,1.433,1.43,1.429,1.429,0,0,1-1.433-1.43" transform="translate(30.328 2.061)" fill="#fff"/>
    <path id="Path_7" data-name="Path 7" d="M-37.5,401.738c2.76-.062,3.916.124,3.916-3.043,0-2.731-1.568-2.667-3.916-2.761v5.8m0-10.04c2.411-.155,3.543,0,3.543-2.793,0-2.317-1.6-2.227-3.543-2.227v5.02m-5.52,14.272V382.441h7.147c4.179,0,7.438,1.355,7.438,6.095a5.259,5.259,0,0,1-2.667,4.952v.066c2.51,1.436,3.04,2.692,3.04,5.613,0,4.767-2.694,6.8-7.185,6.8Z" transform="translate(4.942 2.011)"/>
    <path id="Path_8" data-name="Path 8" d="M-20.128,396.6a21.547,21.547,0,0,0-2.505,1.282,2.515,2.515,0,0,0-1.161,2.257,1.738,1.738,0,0,0,1.847,1.886c1.475,0,1.783-1.541,1.819-2.667V396.6m.182,6.961a5.2,5.2,0,0,1-4.292,2.131,4.358,4.358,0,0,1-4.576-4.7c0-3.988,2.161-5.245,4.359-5.966,2.169-.72,4.328-.938,4.328-2.826a1.634,1.634,0,0,0-1.572-1.813c-1.815,0-1.815,1.254-1.912,2.729H-28.6c-.217-4.4,2.73-6.053,6.746-6.053,4.923,0,6.713,1.5,6.713,5.362v10.762a5.82,5.82,0,0,0,.411,1.94h-4.865Z" transform="translate(7.548 2.858)"/>
    <path id="Path_9" data-name="Path 9" d="M-10.263,387.555v2.2h.07a4.035,4.035,0,0,1,3.478-2.7c2.35,0,4.459,1.282,4.459,3.667v14.4h-5V392.579c-.058-.82-.37-1.507-1.309-1.445a1.281,1.281,0,0,0-1.351,1.445v12.545H-14.9V387.555Z" transform="translate(10.1 2.858)"/>
    <path id="Path_10" data-name="Path 10" d="M3.119,398.725c0,.974.314,1.879,1.477,1.879,1.347,0,1.5-1.219,1.5-2.285v-4.865c0-1.191-.284-2.321-1.632-2.321-1.285,0-1.385,1.695-1.349,2.606v4.986M2.991,406.1c0,1.221.192,1.755,1.634,1.662,1.036-.095,1.475-.314,1.5-1.444v-3.543H6.068a4.761,4.761,0,0,1-3.541,1.911c-3.14,0-4.4-2.819-4.4-5.521v-6.083c0-2.762,1-6.02,4.3-6.02a4.31,4.31,0,0,1,3.95,2.63h.063v-2.134h4.646v17.917c0,4.107-2.952,5.582-6.685,5.582-3.765,0-6.275-.911-6.4-4.957Z" transform="translate(12.469 2.858)"/>
    <rect id="Rectangle_5" data-name="Rectangle 5" width="4.986" height="23.529" transform="translate(26.915 384.451)"/>
    <path id="Path_11" data-name="Path 11" d="M27,396.6a23.336,23.336,0,0,0-2.51,1.282,2.532,2.532,0,0,0-1.156,2.257,1.741,1.741,0,0,0,1.85,1.886c1.475,0,1.788-1.541,1.817-2.667V396.6m.189,6.961a5.206,5.206,0,0,1-4.29,2.131,4.367,4.367,0,0,1-4.588-4.7c0-3.988,2.17-5.245,4.363-5.966C24.84,394.3,27,394.084,27,392.2a1.632,1.632,0,0,0-1.565-1.813c-1.815,0-1.815,1.254-1.915,2.729H18.535c-.228-4.4,2.725-6.053,6.743-6.053,4.923,0,6.71,1.5,6.71,5.362v10.762a6,6,0,0,0,.408,1.94H27.532Z" transform="translate(16.192 2.858)"/>
    <rect id="Rectangle_6" data-name="Rectangle 6" width="200.222" height="49.936" transform="translate(-69.961 371.636)" fill="none" stroke="#fff" stroke-width="0.672"/>
  </g>
</svg>
