<svg xmlns="http://www.w3.org/2000/svg" width="22.875" height="24.196" viewBox="0 0 22.875 24.196">
  <g id="Group_190" data-name="Group 190" transform="translate(-2495.134 -5114.366)">
    <path id="Path_143" data-name="Path 143" d="M2517.3,5127.14a.7.7,0,0,0-.22,1.375,4.751,4.751,0,0,1-.622.622,5.658,5.658,0,0,1-.609.435,1.032,1.032,0,1,0-1.885.817c-.282.078-.568.141-.856.19l-.187.033a.373.373,0,0,0-.73.089c-.242.013-.484.031-.726.035a1.318,1.318,0,0,0-2.626.044,4.352,4.352,0,0,0-1.267.454c-.067.038-.132.077-.2.116a.779.779,0,0,0-1.151.682.77.77,0,0,0,.053.282c-.052.062-.1.125-.151.188a5.572,5.572,0,0,0-.445.688c-.036-.2-.067-.41-.089-.616a9.6,9.6,0,0,1-.032-1.5,9.794,9.794,0,0,1,.217-1.49c.065-.244.118-.491.2-.729.04-.12.074-.241.118-.36l.136-.355c.042-.12.094-.235.147-.35l.156-.348c.106-.24.226-.476.322-.721a15.138,15.138,0,0,0,.53-1.474,5.52,5.52,0,0,1,.281-.6,5.737,5.737,0,0,1,.682-.979c.119-.137.246-.268.378-.394a1.4,1.4,0,1,0,2.4-1.386,8.078,8.078,0,0,1,1.108-.265.492.492,0,0,0,.967-.113c.283-.02.568-.026.852-.023a.667.667,0,0,0-.007.069.723.723,0,1,0,.01-.1q-.428-.018-.858-.006a.494.494,0,0,0-.985.042c0,.014,0,.026,0,.039a8.168,8.168,0,0,0-1.187.246,1.4,1.4,0,0,0-2.417.959,1.37,1.37,0,0,0,.033.3,5.663,5.663,0,0,0-.489.467,6.017,6.017,0,0,0-.471.581,17.879,17.879,0,0,0,.338-2.113,2.813,2.813,0,0,0,.789-.753.488.488,0,0,0,.182.036.495.495,0,0,0,.182-.955c.005-.036.011-.071.014-.107l.007-.192c0-.063-.01-.127-.015-.19l-.036-.373a2.843,2.843,0,0,1,.008-.3.287.287,0,0,0,.085.015.272.272,0,0,0,0-.544h0a3.853,3.853,0,0,1,.206-.619,5.113,5.113,0,0,1,.244-.5.693.693,0,0,0,.323.082.71.71,0,1,0-.341-.092,5.161,5.161,0,0,0-.256.5,3.922,3.922,0,0,0-.226.637.271.271,0,0,0-.091.5,3.116,3.116,0,0,0-.017.331l.029.377c0,.062.012.123.01.184l-.01.185c0,.03-.009.06-.014.089a.525.525,0,0,0-.1-.01.495.495,0,0,0-.276.9,2.7,2.7,0,0,1-.679.64c.037-.4.061-.8.073-1.2q.014-.56,0-1.121a.7.7,0,0,0-.084-1.355c-.021-.215-.044-.429-.073-.642-.021-.157-.045-.313-.07-.47a.336.336,0,0,0-.115-.629c-.03-.146-.061-.291-.1-.435-.052-.219-.113-.437-.182-.651a.49.49,0,1,0-.229.059.484.484,0,0,0,.2-.044c.06.214.113.43.157.648.028.14.054.28.078.421a.338.338,0,1,0,.1.666c.019.149.035.3.05.448.02.206.035.411.048.617a.7.7,0,0,0,.008,1.4l.028,0q-.005.539-.038,1.077a16.8,16.8,0,0,1-1.446,5.953c-.048.111-.1.22-.156.328.006-.1.011-.2.016-.3a11.51,11.51,0,0,0-.057-1.6c-.035-.338-.086-.674-.152-1.008a.7.7,0,0,0,0-1.4.688.688,0,0,0-.337.091q-.129-.393-.287-.773c-.08-.2-.169-.387-.262-.577a1.4,1.4,0,1,0-1.54-2.315,12.321,12.321,0,0,0-1.364-1.324.694.694,0,0,0,.1-.362.7.7,0,1,0-.119.393,12.024,12.024,0,0,1,1.311,1.356,1.4,1.4,0,0,0,.968,2.409,1.38,1.38,0,0,0,.477-.085c.086.19.167.383.241.579.107.28.2.565.281.853a.7.7,0,0,0,.253,1.1q.094.542.134,1.09a11.113,11.113,0,0,1,.005,1.559,9.357,9.357,0,0,1-.191,1.391h0l-.156.367c-.05.123-.091.25-.137.375-.1.249-.163.506-.24.761a10.352,10.352,0,0,0-.287,1.576,10.234,10.234,0,0,0-.023,1.607,10.073,10.073,0,0,0,.13,1.03c-.073-.055-.146-.111-.217-.167q-.2-.157-.386-.325a.6.6,0,0,0,.064-.269.613.613,0,0,0-.613-.613.6.6,0,0,0-.277.069q-.292-.319-.559-.659a.859.859,0,0,0-.513-.71,10.714,10.714,0,0,1-1.412-3.153,10.847,10.847,0,0,1-.335-1.971,1.567,1.567,0,0,0-.036-2.959,3.352,3.352,0,0,0-.3-.961,2.994,2.994,0,0,0-.89-1.042.464.464,0,0,0,.005-.052.511.511,0,1,0-.008.072,2.962,2.962,0,0,1,.841,1.047,3.279,3.279,0,0,1,.259.908,1.568,1.568,0,1,0-.409,3.083,1.52,1.52,0,0,0,.367-.046,11.064,11.064,0,0,0,1.2,4.48,5.652,5.652,0,0,1-1.258-.247,1.571,1.571,0,0,0-2.193-2.124c-.065-.076-.131-.149-.2-.22a1.939,1.939,0,0,0-.884-.529,1.479,1.479,0,0,0-.767.022.744.744,0,1,0,.028.04,1.422,1.422,0,0,1,.72.008,1.857,1.857,0,0,1,.826.535c.063.067.124.138.181.211a1.572,1.572,0,1,0,2.157,2.252,5.308,5.308,0,0,0,.628.195,6.532,6.532,0,0,0,.917.152c.043.078.09.155.135.233a.857.857,0,1,0,.846,1.245c.123.158.249.312.38.463a.6.6,0,0,0-.065.27.611.611,0,0,0,.861.559c.134.125.271.25.411.369.2.17.406.331.628.485a10.737,10.737,0,0,0,.46,1.444,11.5,11.5,0,0,0,.7,1.452q.2.349.427.686c.076.113.154.224.235.333s.161.214.263.333l.655-.594c-.069-.076-.154-.175-.228-.27s-.152-.194-.224-.295c-.146-.2-.285-.407-.416-.619a10.582,10.582,0,0,1-.7-1.326,9.994,9.994,0,0,1-.539-1.564,5.131,5.131,0,0,1,.69-1.25.777.777,0,0,0,1.122-1.048c.033-.021.065-.042.1-.062a3.992,3.992,0,0,1,1.109-.445,1.318,1.318,0,0,0,2.615-.128c.25-.012.5-.04.749-.061l.019,0a.373.373,0,0,0,.7-.1c.07-.014.14-.028.21-.044a9.088,9.088,0,0,0,.907-.232,1.031,1.031,0,0,0,1.851-.625,1.048,1.048,0,0,0-.028-.237,5.659,5.659,0,0,0,.625-.475,4.765,4.765,0,0,0,.615-.656.691.691,0,0,0,.189.029.707.707,0,1,0,0-1.414Z" transform="translate(0 0)" fill="#a7a9ac"/>
    <circle id="Ellipse_19" data-name="Ellipse 19" cx="2.981" cy="2.981" r="2.981" transform="translate(2502.86 5125.125)" fill="#a7a9ac"/>
    <g id="Group_189" data-name="Group 189" transform="translate(2503.728 5126.909)">
      <path id="Path_144" data-name="Path 144" d="M2555.778,5202.618v.035a.421.421,0,0,1-.076.292.349.349,0,0,1-.269.087.363.363,0,0,1-.284-.094.5.5,0,0,1-.082-.326v-.361a.5.5,0,0,1,.082-.327.361.361,0,0,1,.284-.1.3.3,0,0,1,.338.335v.057h-.238v-.035a.284.284,0,0,0-.023-.137.084.084,0,0,0-.077-.045.1.1,0,0,0-.1.052.349.349,0,0,0-.03.168v.36a.558.558,0,0,0,.028.212.1.1,0,0,0,.1.06.087.087,0,0,0,.082-.051.321.321,0,0,0,.025-.153v-.035Z" transform="translate(-2555.067 -5201.83)" fill="#5e5e5e"/>
      <path id="Path_145" data-name="Path 145" d="M2561.141,5205.154a.188.188,0,0,1-.146-.057.224.224,0,0,1-.052-.158v-.049a.256.256,0,0,1,.071-.205.394.394,0,0,1,.246-.059h.065v-.1a.115.115,0,0,0-.017-.068.059.059,0,0,0-.051-.023.074.074,0,0,0-.062.025.108.108,0,0,0-.018.075v.023h-.214v-.023a.2.2,0,0,1,.068-.173.354.354,0,0,1,.22-.055.329.329,0,0,1,.218.061.234.234,0,0,1,.071.188v.582h-.208v-.067l-.009.011A.222.222,0,0,1,2561.141,5205.154Zm.185-.4h-.028a.143.143,0,0,0-.107.033.154.154,0,0,0-.032.111v.05a.084.084,0,0,0,.02.06.069.069,0,0,0,.055.021.075.075,0,0,0,.07-.041.255.255,0,0,0,.023-.122Z" transform="translate(-2560.101 -5203.951)" fill="#5e5e5e"/>
      <path id="Path_146" data-name="Path 146" d="M2566.41,5204.328h.2v.105a.334.334,0,0,1,.025-.04.25.25,0,0,1,.194-.081v.181a.436.436,0,0,0-.046,0,.157.157,0,0,0-.129.046.239.239,0,0,0-.033.157v.448h-.215Z" transform="translate(-2564.783 -5203.956)" fill="#5e5e5e"/>
      <path id="Path_147" data-name="Path 147" d="M2570.379,5205.154a.275.275,0,0,1-.215-.074.361.361,0,0,1-.067-.244v-.16a.459.459,0,0,1,.068-.286.281.281,0,0,1,.232-.083.305.305,0,0,1,.237.072.427.427,0,0,1,.063.271v.119h-.387v.025a.647.647,0,0,0,.017.187.068.068,0,0,0,.07.046.077.077,0,0,0,.07-.033.206.206,0,0,0,.016-.109v-.024h.213v.024a.244.244,0,0,1-.077.2A.366.366,0,0,1,2570.379,5205.154Zm.1-.509v-.046a.311.311,0,0,0-.018-.129.07.07,0,0,0-.069-.035.068.068,0,0,0-.069.042.443.443,0,0,0-.018.157v.012Z" transform="translate(-2567.942 -5203.951)" fill="#5e5e5e"/>
      <path id="Path_148" data-name="Path 148" d="M2575.39,5205.154a.275.275,0,0,1-.215-.074.364.364,0,0,1-.066-.244v-.16a.463.463,0,0,1,.068-.286.281.281,0,0,1,.232-.083.306.306,0,0,1,.237.072.427.427,0,0,1,.063.271v.119h-.387v.025a.647.647,0,0,0,.017.187.068.068,0,0,0,.07.046.075.075,0,0,0,.07-.033.2.2,0,0,0,.017-.109v-.024h.213v.024a.244.244,0,0,1-.077.2A.366.366,0,0,1,2575.39,5205.154Zm.105-.509v-.046a.31.31,0,0,0-.018-.129.07.07,0,0,0-.069-.035.068.068,0,0,0-.069.042.443.443,0,0,0-.018.157v.012Z" transform="translate(-2572.235 -5203.951)" fill="#5e5e5e"/>
      <path id="Path_149" data-name="Path 149" d="M2580.356,5204.328h.2v.105a.242.242,0,0,1,.025-.04.249.249,0,0,1,.194-.081v.181a.441.441,0,0,0-.046,0,.156.156,0,0,0-.129.046.241.241,0,0,0-.033.157v.448h-.214Z" transform="translate(-2576.73 -5203.956)" fill="#5e5e5e"/>
      <path id="Path_150" data-name="Path 150" d="M2560.76,5211.8h.315a.471.471,0,0,1,.321.088.4.4,0,0,1,.1.3v.327a.558.558,0,0,1-.084.359.421.421,0,0,1-.32.095h-.328Zm.239.992h.063a.192.192,0,0,0,.151-.046.286.286,0,0,0,.039-.178v-.386a.234.234,0,0,0-.044-.163.223.223,0,0,0-.159-.045H2561Z" transform="translate(-2559.944 -5210.372)" fill="#5e5e5e"/>
      <path id="Path_151" data-name="Path 151" d="M2567.284,5212.969V5211.8h.583v.174h-.344v.309h.333v.174h-.333v.338h.351v.173Z" transform="translate(-2565.532 -5210.372)" fill="#5e5e5e"/>
      <path id="Path_152" data-name="Path 152" d="M2572.259,5211.8h.238l.163.905h0l.156-.905h.229l-.251,1.167h-.281Z" transform="translate(-2569.794 -5210.372)" fill="#5e5e5e"/>
    </g>
  </g>
</svg>
