<svg xmlns="http://www.w3.org/2000/svg" width="17.4" height="11.847" viewBox="0 0 17.4 11.847">
  <g id="Group_188" data-name="Group 188" transform="translate(-2797.471 -4885.959)">
    <g id="Group_184" data-name="Group 184" transform="translate(2797.471 4885.959)">
      <path id="Path_138" data-name="Path 138" d="M2829.729,4902.959h-14.92a.338.338,0,0,0-.338.338v6.911a.339.339,0,0,0,.338.338h9.223a.45.45,0,0,1,.373.2l1.538,2.256a.009.009,0,0,0,.006,0,.006.006,0,0,0,.006,0l2.954-2.356a.449.449,0,0,1,.281-.1h.539a.339.339,0,0,0,.338-.338V4903.3A.338.338,0,0,0,2829.729,4902.959Z" transform="translate(-2813.569 -4902.057)" fill="none"/>
      <path id="Path_139" data-name="Path 139" d="M2813.631,4885.959h-14.92a1.241,1.241,0,0,0-1.24,1.24v6.91a1.242,1.242,0,0,0,1.24,1.24h8.985l1.4,2.059a.914.914,0,0,0,.616.387.891.891,0,0,0,.135.01.915.915,0,0,0,.569-.2l2.831-2.258h.381a1.242,1.242,0,0,0,1.24-1.24v-6.91A1.242,1.242,0,0,0,2813.631,4885.959Zm.338,8.15a.339.339,0,0,1-.338.338h-.539a.448.448,0,0,0-.281.1l-2.954,2.356a.009.009,0,0,1-.006,0,.009.009,0,0,1-.006,0l-1.538-2.256a.45.45,0,0,0-.373-.2h-9.223a.339.339,0,0,1-.338-.338v-6.91a.338.338,0,0,1,.338-.338h14.92a.338.338,0,0,1,.338.338Z" transform="translate(-2797.471 -4885.959)" fill="#a7a9ac"/>
    </g>
    <g id="Group_185" data-name="Group 185" transform="translate(2799.831 4888.9)">
      <path id="Path_140" data-name="Path 140" d="M2843.5,4944.487a1.548,1.548,0,1,1,1.547-1.548A1.55,1.55,0,0,1,2843.5,4944.487Zm0-1.994a.446.446,0,1,0,.446.446A.447.447,0,0,0,2843.5,4942.494Z" transform="translate(-2841.949 -4941.392)" fill="#a7a9ac"/>
    </g>
    <g id="Group_186" data-name="Group 186" transform="translate(2804.667 4888.9)">
      <path id="Path_141" data-name="Path 141" d="M2934.656,4944.487a1.548,1.548,0,1,1,1.548-1.548A1.55,1.55,0,0,1,2934.656,4944.487Zm0-1.994a.446.446,0,1,0,.446.446A.447.447,0,0,0,2934.656,4942.494Z" transform="translate(-2933.109 -4941.392)" fill="#a7a9ac"/>
    </g>
    <g id="Group_187" data-name="Group 187" transform="translate(2809.503 4888.9)">
      <path id="Path_142" data-name="Path 142" d="M3025.817,4944.487a1.548,1.548,0,1,1,1.548-1.548A1.55,1.55,0,0,1,3025.817,4944.487Zm0-1.994a.446.446,0,1,0,.446.446A.446.446,0,0,0,3025.817,4942.494Z" transform="translate(-3024.269 -4941.392)" fill="#a7a9ac"/>
    </g>
  </g>
</svg>
