<svg xmlns="http://www.w3.org/2000/svg" width="14.708" height="18.016" viewBox="0 0 14.708 18.016">
  <g id="Component_1_9" data-name="Component 1 – 9" transform="translate(0 18.016) rotate(-90)">
    <path id="Path_43" data-name="Path 43" d="M1170.181,1207.356a5.254,5.254,0,0,1-5.2-5.38,5.341,5.341,0,0,1,5.125-5.228,5.187,5.187,0,0,1,4.713,2.907.767.767,0,0,0,.686.43h.024a1.1,1.1,0,0,0,.941-1.63,7.183,7.183,0,0,0-6.353-3.758,7.356,7.356,0,0,0,.063,14.708,7.186,7.186,0,0,0,6.291-3.76,1.1,1.1,0,0,0-.942-1.628h-.024a.77.77,0,0,0-.687.432A5.189,5.189,0,0,1,1170.181,1207.356Z" transform="translate(-1162.971 -1194.698)" fill="#b4b4b4"/>
    <rect id="Rectangle_58" data-name="Rectangle 58" width="11.284" height="2.3" rx="1.15" transform="translate(6.732 6.205)" fill="#b4b4b4"/>
  </g>
</svg>
