<svg xmlns="http://www.w3.org/2000/svg" width="20" height="15.627" viewBox="0 0 20 15.627">
  <g id="Group_265" data-name="Group 265" transform="translate(-2466.394 -5594.066)">
    <path id="Path_141" data-name="Path 141" d="M2490.907,5604.35a10.8,10.8,0,0,0-2.325-2.881,11.4,11.4,0,0,0-1.543-1.162l-.632.634a10.83,10.83,0,0,1,3.6,3.6,11.735,11.735,0,0,1-2.129,2.461,10.493,10.493,0,0,1-3.74,2.153,5.6,5.6,0,0,0,1.641-7.583l-.662.663a4.694,4.694,0,0,1-6.371,6.388l-.609.61-.053.054-.639.64a10.986,10.986,0,0,0,3.564.583,11.206,11.206,0,0,0,7.474-2.871,11.894,11.894,0,0,0,2.416-2.88l.111-.2Z" transform="translate(-4.617 -2.607)" fill="#a3a3a3"/>
    <path id="Path_142" data-name="Path 142" d="M2473.394,5605.509l4.932-4.946.526-.527,2.4-2.406.378-.38,2.556-2.563-.621-.62-2.785,2.792a11.384,11.384,0,0,0-4.408-.86,11.1,11.1,0,0,0-7.572,2.866,10.623,10.623,0,0,0-2.3,2.881l-.1.2.11.2a12.272,12.272,0,0,0,4.6,4.409l-2.508,2.513.622.621,3.53-3.54h0l.643-.645Zm6.718-7.979-.1.1c-.1-.085-.2-.173-.3-.251C2479.842,5597.427,2479.977,5597.479,2480.112,5597.53Zm-8.363,8.385a10.9,10.9,0,0,1-2.225-1.523,11.66,11.66,0,0,1-2.128-2.462,10.5,10.5,0,0,1,2.02-2.44,10.043,10.043,0,0,1,3.694-2.126,5.582,5.582,0,0,0-.973,8.164Zm-.052-4.015a4.689,4.689,0,0,1,7.672-3.625l-1.146,1.148a3.069,3.069,0,0,0-3.159-.307,1.028,1.028,0,1,1-1.455,1.454,3.074,3.074,0,0,0,.312,3.167l-1.145,1.148A4.668,4.668,0,0,1,2471.7,5601.9Z" transform="translate(0 0)" fill="#a3a3a3"/>
    <path id="Path_143" data-name="Path 143" d="M2482.812,5609.844a3.086,3.086,0,0,0,2.9-4.145l-3.949,3.959A3.052,3.052,0,0,0,2482.812,5609.844Z" transform="translate(-6.419 -4.86)" fill="#a3a3a3"/>
  </g>
</svg>
