<svg id="Component_20_5" data-name="Component 20 – 5" xmlns="http://www.w3.org/2000/svg" width="17.143" height="17.006" viewBox="0 0 17.143 17.006">
  <g id="Group_120" data-name="Group 120">
    <path id="Path_85" data-name="Path 85" d="M1569.13,3680.793h-1.337a5.755,5.755,0,0,0-.361-.833l.942-.941a.7.7,0,0,0,0-1.012l-2.1-2.1a.7.7,0,0,0-1.012,0l-.976.977c-.252-.108-.543-.217-.794-.326v-1.375a.726.726,0,0,0-.724-.725H1559.8a.726.726,0,0,0-.725.725v1.3c-.287.109-.542.217-.794.326l-.977-.976a.7.7,0,0,0-1.011,0l-2.1,2.1a.7.7,0,0,0,0,1.012l.941.941a8.553,8.553,0,0,0-.36.833h-1.337a.726.726,0,0,0-.725.724v2.968a.726.726,0,0,0,.725.725h1.229a9.279,9.279,0,0,0,.36.868l-.9.9a.7.7,0,0,0,0,1.011l2.1,2.1a.7.7,0,0,0,1.012,0l.868-.868a3.931,3.931,0,0,0,.9.4v1.194a.726.726,0,0,0,.724.724h2.968a.658.658,0,0,0,.689-.647v-1.194c.287-.108.612-.255.9-.4l.868.868a.7.7,0,0,0,1.011,0l2.1-2.1a.7.7,0,0,0,0-1.012l-.9-.9a9.213,9.213,0,0,0,.36-.868h1.4a.726.726,0,0,0,.724-.725v-2.968A.725.725,0,0,0,1569.13,3680.793Zm-.823,2.933h-1.085a.7.7,0,0,0-.686.542,5.6,5.6,0,0,1-.616,1.52.706.706,0,0,0,.109.868l.759.76-1.085,1.084-.725-.724a.662.662,0,0,0-.868-.109,6.394,6.394,0,0,1-1.557.651.694.694,0,0,0-.543.687v1.05h-1.557v0h-.035V3689a.7.7,0,0,0-.543-.686,5.78,5.78,0,0,1-1.557-.651.7.7,0,0,0-.868.108l-.724.724-1.085-1.084.759-.76a.711.711,0,0,0,.108-.868,4.592,4.592,0,0,1-.616-1.519.693.693,0,0,0-.686-.542h-1.085v-1.558h1.159a.7.7,0,0,0,.686-.542,4.557,4.557,0,0,1,.616-1.449.706.706,0,0,0-.109-.868l-.833-.833,1.085-1.085.833.833a.711.711,0,0,0,.868.108,5.572,5.572,0,0,1,1.449-.578.693.693,0,0,0,.543-.686v-1.193h1.557v1.232a.7.7,0,0,0,.542.686,5.069,5.069,0,0,1,1.449.578.705.705,0,0,0,.868-.108l.868-.868,1.085,1.085-.833.833a.662.662,0,0,0-.109.868,6.36,6.36,0,0,1,.616,1.45.694.694,0,0,0,.686.542h1.158Z" transform="translate(-1552.712 -3674.458)" fill="#b4b4b4"/>
    <path id="Path_86" data-name="Path 86" d="M1686.857,3804.758a3.945,3.945,0,1,0,3.944,3.945A3.956,3.956,0,0,0,1686.857,3804.758Zm0,6.479a2.534,2.534,0,1,1,2.534-2.534A2.542,2.542,0,0,1,1686.857,3811.236Z" transform="translate(-1678.355 -3800.197)" fill="#b4b4b4"/>
  </g>
</svg>
