<svg id="Component_27_1" data-name="Component 27 – 1" xmlns="http://www.w3.org/2000/svg" width="34.34" height="31.994" viewBox="0 0 34.34 31.994">
  <path id="Path_121" data-name="Path 121" d="M2123.69,4539.227a9.632,9.632,0,0,0-17.98-6.3,7.028,7.028,0,0,0-9.419,8.368,5.5,5.5,0,0,0,2.483,10.4h8.76a.655.655,0,1,0,0-1.311h-8.759a4.186,4.186,0,0,1-1.451-8.109.657.657,0,0,0,.386-.843,5.715,5.715,0,0,1,8-7.055.654.654,0,0,0,.9-.315,8.321,8.321,0,0,1,15.674,5.417.656.656,0,0,0,.434.786,5.185,5.185,0,0,1-1.6,10.119h-7.7a.655.655,0,1,0,0,1.311h7.7a6.5,6.5,0,0,0,2.562-12.467Z" transform="translate(-2093.285 -4527.793)" fill="#c2c2c2"/>
  <path id="Path_122" data-name="Path 122" d="M2166.106,4612.982a.655.655,0,1,0,.879-.972l-6.865-6.2a.4.4,0,0,0-.038-.028.468.468,0,0,0-.049-.037c-.019-.011-.039-.021-.059-.031a.359.359,0,0,0-.051-.025.606.606,0,0,0-.071-.023l-.047-.012a.649.649,0,0,0-.249,0c-.017,0-.031.008-.047.012a.58.58,0,0,0-.072.023.332.332,0,0,0-.05.025l-.06.031a.517.517,0,0,0-.048.037.3.3,0,0,0-.038.028l-6.866,6.2a.655.655,0,1,0,.879.972l5.771-5.209v16.45a.656.656,0,1,0,1.311,0v-16.45Z" transform="translate(-2142.51 -4592.885)" fill="#c2c2c2"/>
</svg>
