<svg id="Component_25_2" data-name="Component 25 – 2" xmlns="http://www.w3.org/2000/svg" width="17.5" height="17.5" viewBox="0 0 17.5 17.5">
  <path id="Path_106" data-name="Path 106" d="M1967.341,3425.089a8.75,8.75,0,1,0,8.75,8.75A8.76,8.76,0,0,0,1967.341,3425.089Zm0,1.013a7.735,7.735,0,0,1,6.8,11.428,8.75,8.75,0,0,0-13.593.005,7.735,7.735,0,0,1,6.8-11.434Zm0,15.474a3.9,3.9,0,1,1,6.219-3.139A7.731,7.731,0,0,1,1967.341,3441.576Z" transform="translate(-1958.591 -3425.089)" fill="#b4b4b4"/>
  <path id="Path_107" data-name="Path 107" d="M2055.647,3460.966a3.483,3.483,0,1,0-3.483-3.483A3.487,3.487,0,0,0,2055.647,3460.966Zm0-5.954a2.47,2.47,0,1,1-2.47,2.47A2.473,2.473,0,0,1,2055.647,3455.012Z" transform="translate(-2046.898 -3452.372)" fill="#b4b4b4"/>
</svg>
