<svg id="Component_16_1" data-name="Component 16 – 1" xmlns="http://www.w3.org/2000/svg" width="52" height="52" viewBox="0 0 52 52">
  <ellipse id="Ellipse_3" data-name="Ellipse 3" cx="26" cy="26" rx="26" ry="26" fill="#adadad"/>
  <path id="Path_84" data-name="Path 84" d="M-168.867,1839.764c.006.15-.045.339.027.442a7.232,7.232,0,0,1,1.355,5.2,4.411,4.411,0,0,0,1.3,3.834c.791.836,1.489,1.76,2.226,2.647,1.134,1.366.986,2.017-.638,2.817-.151.074-.3.157-.418.221-.518.91.485,1.412.507,2.321l-.515,1.115c.563,1.108-.481,1.642-1.122,2.382.1.58.212,1.161.3,1.745.294,1.907-.507,2.93-2.434,3.1-.468.042-.941.029-1.409.076a2.448,2.448,0,0,0-2.372,2.136c-.333,1.836-.6,3.685-.932,5.726a18.454,18.454,0,0,1-13.895-1.264c1.465-2.277,1.386-4.636.97-7.018-.053-.305-.412-.558-.545-.883a10.878,10.878,0,0,0-1.1-1.628,17.889,17.889,0,0,0-2.045-1.745,7.049,7.049,0,0,1-2.892-4.552l-.642.2c-3.832-6.4-2.714-12.208,2.25-17.719l-1.846.28c.984-1.552,2.466-1.788,3.854-2l1.581-2.906.04.035-.2,1.748,3.012-2.233.2.156-.648,1.642a19.34,19.34,0,0,1,14.46,1.256l-.646.581c.933.579,1.971,1.025,2.382,2.127Z" transform="translate(205.307 -1828.111)" fill="#595959"/>
</svg>
