<svg id="Component_26_1" data-name="Component 26 – 1" xmlns="http://www.w3.org/2000/svg" width="17.5" height="17.5" viewBox="0 0 17.5 17.5">
  <g id="Group_140" data-name="Group 140">
    <g id="Group_139" data-name="Group 139" transform="translate(0 0)">
      <path id="Path_113" data-name="Path 113" d="M1790.823,4216.521h1.094v1.094a.365.365,0,1,0,.729,0v-1.458a.365.365,0,0,0-.365-.365h-1.458a.365.365,0,1,0,0,.729Z" transform="translate(-1776.604 -4215.792)" fill="#595959"/>
      <path id="Path_114" data-name="Path 114" d="M1624.746,4217.979a.364.364,0,0,0,.365-.365v-1.094h1.094a.365.365,0,1,0,0-.729h-1.458a.365.365,0,0,0-.365.365v1.458A.364.364,0,0,0,1624.746,4217.979Z" transform="translate(-1622.923 -4215.792)" fill="#595959"/>
      <path id="Path_115" data-name="Path 115" d="M1790.823,4354.749h1.458a.365.365,0,0,0,.365-.364v-1.458a.365.365,0,1,0-.729,0v1.094h-1.094a.365.365,0,1,0,0,.729Z" transform="translate(-1776.604 -4342.353)" fill="#595959"/>
      <path id="Path_116" data-name="Path 116" d="M1619.238,4228.95l-2.793-.7-.238-.951a5.023,5.023,0,0,0,1.412-2.8,1.1,1.1,0,0,0,.79-.917l.182-1.459a1.091,1.091,0,0,0-.7-1.157l.067-1.373.273-.273a1.681,1.681,0,0,0,.039-2.272,3.062,3.062,0,0,0-2.761-1.259,4.811,4.811,0,0,0-2.764.73c-3.107.065-3.529,1.507-3.529,2.916,0,.327.079,1.064.132,1.508a1.094,1.094,0,0,0-.755,1.18l.182,1.458a1.1,1.1,0,0,0,.876.938,5.066,5.066,0,0,0,1.341,2.714l-.254,1.017-2.793.7a4.094,4.094,0,0,0-3.1,3.978.363.363,0,0,0,.106.258.367.367,0,0,0,.258.106h16.771a.365.365,0,0,0,.365-.365A4.092,4.092,0,0,0,1619.238,4228.95Zm-13.647,3.611a3.366,3.366,0,0,1,2.533-2.9l3.006-.751a.366.366,0,0,0,.265-.266l.357-1.43a.362.362,0,0,0-.1-.354,4.28,4.28,0,0,1-1.3-2.709.364.364,0,0,0-.363-.335h-.118a.366.366,0,0,1-.362-.32l-.182-1.457a.365.365,0,0,1,.362-.411h.076a.363.363,0,0,0,.362-.41c-.047-.374-.169-1.421-.169-1.778,0-1.138.224-2.161,2.92-2.187a.361.361,0,0,0,.208-.068,3.983,3.983,0,0,1,2.435-.661,2.388,2.388,0,0,1,2.153.93c.484.739.275,1.122.047,1.365l-.365.365a.364.364,0,0,0-.106.24l-.089,1.825a.364.364,0,0,0,.359.382.368.368,0,0,1,.273.126.357.357,0,0,1,.086.282l-.182,1.458a.375.375,0,0,1-.4.319.365.365,0,0,0-.363.337,4.248,4.248,0,0,1-1.367,2.762.364.364,0,0,0-.11.359l.343,1.37a.366.366,0,0,0,.265.266l3.006.75a3.365,3.365,0,0,1,2.532,2.905Z" transform="translate(-1604.843 -4215.792)" fill="#595959"/>
      <path id="Path_117" data-name="Path 117" d="M1624.746,4354.749h1.458a.365.365,0,1,0,0-.729h-1.094v-1.094a.365.365,0,1,0-.729,0v1.458A.365.365,0,0,0,1624.746,4354.749Z" transform="translate(-1622.923 -4342.353)" fill="#595959"/>
    </g>
  </g>
</svg>
